<?xml version="1.0" encoding="utf-8"?>
<!-- Generator: Adobe Illustrator 21.0.1, SVG Export Plug-In . SVG Version: 6.00 Build 0)  -->
<svg version="1.1" id="Layer_1" xmlns="http://www.w3.org/2000/svg" xmlns:xlink="http://www.w3.org/1999/xlink" x="0px" y="0px"
	 viewBox="0 0 750 499.1" style="enable-background:new 0 0 750 499.1;" xml:space="preserve">
<style type="text/css">
	.st0{fill:none;stroke:#15A991;stroke-width:1.3112;stroke-miterlimit:10;}
	.st1{fill:#58595B;}
	.st2{fill:#15A991;}
	.st3{fill:#FFFFFF;}
	.st4{fill:#2C6FB0;}
	.st5{fill:#EF464E;}
	.st6{fill:#212558;}
	.st7{fill:none;stroke:#BCBEC0;stroke-width:1.8442;stroke-miterlimit:10;}
	.st8{fill:#2C6FB0;stroke:#FFFFFF;stroke-width:1.8442;stroke-miterlimit:10;}
	.st9{fill:#AF72B0;}
</style>
<g>
	<g>
		<g>
			<g>
				<polygon class="st0" points="208.2,336.5 83.2,336.5 83.2,234.7 108,234.7 208.2,234.7 				"/>
				<g>
					<line class="st0" x1="106.7" y1="234.7" x2="106.7" y2="336.5"/>
					<line class="st0" x1="132.7" y1="234.7" x2="132.7" y2="336.5"/>
					<line class="st0" x1="158.8" y1="234.7" x2="158.8" y2="336.5"/>
					<line class="st0" x1="184.8" y1="234.7" x2="184.8" y2="336.5"/>
				</g>
				<g>
					<line class="st0" x1="83.2" y1="310.3" x2="208.2" y2="310.3"/>
					<line class="st0" x1="83.2" y1="284.2" x2="208.2" y2="284.2"/>
					<line class="st0" x1="83.2" y1="258.2" x2="208.2" y2="258.2"/>
				</g>
			</g>
			<g>
				<g>
					<path class="st1" d="M97.4,247.2c0,2.2-0.7,4.1-2.7,4.1c-2,0-2.7-1.9-2.7-4.2c0-2.6,0.9-4.1,2.8-4.1
						C96.5,243,97.4,244.5,97.4,247.2z M93.2,247.2c0,2.1,0.6,3.2,1.6,3.2c1,0,1.5-1.1,1.5-3.2c0-2.1-0.6-3.2-1.5-3.2
						C93.7,244,93.2,245.1,93.2,247.2z"/>
				</g>
			</g>
			<g>
				<g>
					<path class="st1" d="M120.5,251.2h-1.1v-4.6c0-0.7,0-1.7,0.1-2.2h0c-0.2,0.2-0.4,0.4-0.8,0.8l-0.4,0.4l-0.6-0.8l2-1.6h1V251.2z
						"/>
				</g>
			</g>
			<g>
				<g>
					<path class="st1" d="M143.3,243.5c0.6-0.3,1.3-0.5,2.2-0.5c1.5,0,2.6,0.8,2.6,2.2c0,1-0.6,2-2.1,3.5c-0.7,0.7-1.3,1.1-1.8,1.5
						v0c0.7,0,1.7,0,2.4,0h1.7v0.9h-5.1V250c2.7-2.3,3.8-3.5,3.8-4.7c0-0.9-0.7-1.4-1.6-1.4c-0.6,0-1.2,0.2-1.8,0.6L143.3,243.5z"/>
				</g>
			</g>
			<g>
				<g>
					<path class="st1" d="M170.1,247.5v-0.9c0.1,0,0.2,0,0.3,0c1.5,0,2.4-0.5,2.4-1.4c0-0.8-0.7-1.3-1.7-1.3c-0.6,0-1.1,0.1-1.8,0.4
						l-0.1-1c0.6-0.2,1.3-0.3,2-0.3c1.7,0,2.7,0.8,2.7,2.1c0,1-0.9,1.7-2,1.8v0c1.2,0.1,2.1,0.9,2.1,2c0,1.4-1.1,2.3-2.9,2.3
						c-0.7,0-1.4-0.1-2-0.3l0.1-1c0.7,0.3,1.3,0.5,2,0.5c1,0,1.8-0.5,1.8-1.5c0-1-0.8-1.5-2.4-1.5
						C170.4,247.5,170.3,247.5,170.1,247.5z"/>
				</g>
			</g>
			<g>
				<g>
					<path class="st1" d="M198,248.5h1.1v0.9H198v1.8h-1.1v-1.8h-3.8v-0.9l3.3-5.3h1.6V248.5z M196.9,246.2c0-0.7,0-1.5,0-2.4h0
						c-0.2,0.4-0.6,1.1-0.9,1.7l-1.8,2.9h2.7V246.2z"/>
				</g>
			</g>
			<g>
				<g>
					<path class="st1" d="M97,269h-3.4l-0.1,2.2c0.3-0.1,0.6-0.1,0.9-0.1c1.6,0,2.8,0.9,2.8,2.5c0,1.6-1.2,2.7-3.1,2.7
						c-0.5,0-1.1-0.1-1.7-0.3l0-1c0.6,0.3,1.1,0.4,1.7,0.4c1.1,0,2-0.6,2-1.7c0-1.1-0.8-1.7-2-1.7c-0.5,0-1.1,0.1-1.6,0.3l0.1-4.2
						H97V269z"/>
				</g>
			</g>
			<g>
				<g>
					<path class="st1" d="M121.6,269.1c-0.5-0.2-0.9-0.3-1.4-0.3c-1.4,0-2.3,1.1-2.3,3.1h0c0.4-0.6,1.2-0.9,1.9-0.9
						c1.4,0,2.4,1.1,2.4,2.5c0,1.5-1,2.7-2.6,2.7c-1.8,0-2.8-1.3-2.8-3.9c0-2.8,1.2-4.4,3.4-4.4c0.6,0,1,0.1,1.5,0.2L121.6,269.1z
						 M118.1,273.5c0,1,0.7,1.8,1.5,1.8c0.9,0,1.5-0.8,1.5-1.8c0-1-0.4-1.7-1.5-1.7C118.8,271.8,118.1,272.6,118.1,273.5z"/>
				</g>
			</g>
			<g>
				<g>
					<path class="st1" d="M148.2,269l-3,7H144l3.1-7h-3.9v-1h5.1V269z"/>
				</g>
			</g>
			<g>
				<g>
					<path class="st1" d="M174.5,273.9c0,1.4-1.3,2.3-2.9,2.3c-1.7,0-2.8-0.8-2.8-2.2c0-1,0.6-1.7,1.8-2.2c-1.2-0.5-1.6-1-1.6-1.9
						c0-1.2,1-2,2.7-2c1.5,0,2.6,0.7,2.6,2c0,0.9-0.6,1.4-1.6,1.9C173.9,272.3,174.5,272.9,174.5,273.9z M170,274
						c0,0.9,0.7,1.4,1.6,1.4c0.9,0,1.7-0.5,1.7-1.4c0-0.8-0.7-1.3-1.8-1.7C170.5,272.6,170,273.2,170,274z M173,270
						c0-0.8-0.6-1.2-1.4-1.2c-0.8,0-1.5,0.4-1.5,1.2c0,0.8,0.7,1.2,1.6,1.5C172.6,271.1,173,270.6,173,270z"/>
				</g>
			</g>
			<g>
				<g>
					<path class="st1" d="M193.8,275c0.5,0.2,1,0.3,1.5,0.3c1.4,0,2.3-1.2,2.3-3.2h0c-0.4,0.6-1.2,0.9-1.9,0.9c-1.5,0-2.4-1-2.4-2.4
						c0-1.5,1-2.7,2.6-2.7c1.8,0,2.8,1.3,2.8,3.8c0,2.8-1.2,4.5-3.4,4.5c-0.6,0-1.1-0.1-1.7-0.3L193.8,275z M197.5,270.6
						c0-1-0.6-1.8-1.5-1.8c-0.9,0-1.5,0.8-1.5,1.8c0,1,0.5,1.7,1.5,1.7C196.9,272.2,197.5,271.5,197.5,270.6z"/>
				</g>
			</g>
			<g>
				<g>
					<path class="st1" d="M92.9,302.4h-1.1v-4.6c0-0.7,0-1.7,0.1-2.2h0c-0.2,0.2-0.4,0.4-0.8,0.8l-0.4,0.4l-0.6-0.8l2-1.6h1V302.4z"
						/>
					<path class="st1" d="M100.3,298.5c0,2.2-0.7,4.1-2.7,4.1c-2,0-2.7-1.9-2.7-4.2c0-2.6,0.9-4.1,2.8-4.1
						C99.4,294.3,100.3,295.8,100.3,298.5z M96.1,298.4c0,2.1,0.6,3.2,1.6,3.2c1,0,1.5-1.1,1.5-3.2c0-2.1-0.6-3.2-1.5-3.2
						C96.6,295.2,96.1,296.3,96.1,298.4z"/>
				</g>
			</g>
			<g>
				<g>
					<path class="st1" d="M118,302.4h-1.1v-4.6c0-0.7,0-1.7,0.1-2.2h0c-0.2,0.2-0.4,0.4-0.8,0.8l-0.4,0.4l-0.6-0.8l2-1.6h1V302.4z"
						/>
					<path class="st1" d="M123.1,302.4h-1.1v-4.6c0-0.7,0-1.7,0.1-2.2h0c-0.2,0.2-0.4,0.4-0.8,0.8l-0.4,0.4l-0.6-0.8l2-1.6h1V302.4z
						"/>
				</g>
			</g>
			<g>
				<g>
					<path class="st1" d="M144,302.4h-1.1v-4.6c0-0.7,0-1.7,0.1-2.2h0c-0.2,0.2-0.4,0.4-0.8,0.8l-0.4,0.4l-0.6-0.8l2-1.6h1V302.4z"
						/>
					<path class="st1" d="M146.1,294.7c0.6-0.3,1.3-0.5,2.2-0.5c1.5,0,2.6,0.8,2.6,2.2c0,1-0.6,2-2.1,3.5c-0.7,0.7-1.3,1.1-1.8,1.5
						v0c0.7,0,1.7,0,2.4,0h1.7v0.9h-5.1v-1.1c2.7-2.3,3.8-3.5,3.8-4.7c0-0.9-0.7-1.4-1.6-1.4c-0.6,0-1.2,0.2-1.8,0.6L146.1,294.7z"
						/>
				</g>
			</g>
			<g>
				<g>
					<path class="st1" d="M169.9,302.4h-1.1v-4.6c0-0.7,0-1.7,0.1-2.2h0c-0.2,0.2-0.4,0.4-0.8,0.8l-0.4,0.4l-0.6-0.8l2-1.6h1V302.4z
						"/>
					<path class="st1" d="M172.9,298.7v-0.9c0.1,0,0.2,0,0.3,0c1.5,0,2.4-0.5,2.4-1.4c0-0.8-0.7-1.3-1.7-1.3c-0.6,0-1.1,0.1-1.8,0.4
						l-0.1-1c0.6-0.2,1.3-0.3,2-0.3c1.7,0,2.7,0.8,2.7,2.1c0,1-0.9,1.7-2,1.8v0c1.2,0.1,2.1,0.9,2.1,2c0,1.4-1.1,2.3-2.9,2.3
						c-0.7,0-1.4-0.1-2-0.3l0.1-1c0.7,0.3,1.3,0.5,2,0.5c1,0,1.8-0.5,1.8-1.5c0-1-0.8-1.5-2.4-1.5
						C173.1,298.7,173,298.7,172.9,298.7z"/>
				</g>
			</g>
			<g>
				<g>
					<path class="st1" d="M194.3,302.4h-1.1v-4.6c0-0.7,0-1.7,0.1-2.2h0c-0.2,0.2-0.4,0.4-0.8,0.8l-0.4,0.4l-0.6-0.8l2-1.6h1V302.4z
						"/>
					<path class="st1" d="M200.8,299.7h1.1v0.9h-1.1v1.8h-1.1v-1.8h-3.8v-0.9l3.3-5.3h1.6V299.7z M199.7,297.5c0-0.7,0-1.5,0-2.4h0
						c-0.2,0.4-0.6,1.1-0.9,1.7l-1.8,2.9h2.7V297.5z"/>
				</g>
			</g>
			<g>
				<g>
					<path class="st1" d="M93,328.5h-1.1v-4.6c0-0.7,0-1.7,0.1-2.2h0c-0.2,0.2-0.4,0.4-0.8,0.8l-0.4,0.4l-0.6-0.8l2-1.6h1V328.5z"/>
					<path class="st1" d="M99.8,321.4h-3.4l-0.1,2.2c0.3-0.1,0.6-0.1,0.9-0.1c1.6,0,2.8,0.9,2.8,2.5c0,1.6-1.2,2.7-3.1,2.7
						c-0.5,0-1.1-0.1-1.7-0.3l0-1c0.6,0.3,1.1,0.4,1.7,0.4c1.1,0,2-0.6,2-1.7c0-1.1-0.8-1.7-2-1.7c-0.5,0-1.1,0.1-1.6,0.3l0.1-4.2
						h4.4V321.4z"/>
				</g>
			</g>
			<g>
				<g>
					<path class="st1" d="M117.7,328.5h-1.1v-4.6c0-0.7,0-1.7,0.1-2.2h0c-0.2,0.2-0.4,0.4-0.8,0.8l-0.4,0.4l-0.6-0.8l2-1.6h1V328.5z
						"/>
					<path class="st1" d="M124.5,321.5c-0.5-0.2-0.9-0.3-1.4-0.3c-1.4,0-2.3,1.1-2.3,3.1h0c0.4-0.6,1.2-0.9,1.9-0.9
						c1.4,0,2.4,1.1,2.4,2.5c0,1.5-1,2.7-2.6,2.7c-1.8,0-2.8-1.3-2.8-3.9c0-2.8,1.2-4.4,3.4-4.4c0.6,0,1,0.1,1.5,0.2L124.5,321.5z
						 M121,325.9c0,1,0.7,1.8,1.5,1.8c0.9,0,1.5-0.8,1.5-1.8c0-1-0.4-1.7-1.5-1.7C121.6,324.3,121,325,121,325.9z"/>
				</g>
			</g>
			<g>
				<g>
					<path class="st1" d="M144,328.5h-1.1v-4.6c0-0.7,0-1.7,0.1-2.2h0c-0.2,0.2-0.4,0.4-0.8,0.8l-0.4,0.4l-0.6-0.8l2-1.6h1V328.5z"
						/>
					<path class="st1" d="M150.9,321.4l-3,7h-1.2l3.1-7h-3.9v-1h5.1V321.4z"/>
				</g>
			</g>
			<g>
				<g>
					<path class="st1" d="M169.8,328.5h-1.1v-4.6c0-0.7,0-1.7,0.1-2.2h0c-0.2,0.2-0.4,0.4-0.8,0.8l-0.4,0.4l-0.6-0.8l2-1.6h1V328.5z
						"/>
					<path class="st1" d="M177.4,326.3c0,1.4-1.3,2.3-2.9,2.3c-1.7,0-2.8-0.8-2.8-2.2c0-1,0.6-1.7,1.8-2.2c-1.2-0.5-1.6-1-1.6-1.9
						c0-1.2,1-2,2.7-2c1.5,0,2.6,0.7,2.6,2c0,0.9-0.6,1.4-1.6,1.9C176.8,324.7,177.4,325.3,177.4,326.3z M172.9,326.4
						c0,0.9,0.7,1.4,1.6,1.4c0.9,0,1.7-0.5,1.7-1.4c0-0.8-0.7-1.3-1.8-1.7C173.4,325,172.9,325.6,172.9,326.4z M175.9,322.4
						c0-0.8-0.6-1.2-1.4-1.2c-0.8,0-1.5,0.4-1.5,1.2c0,0.8,0.7,1.2,1.6,1.5C175.5,323.5,175.9,323,175.9,322.4z"/>
				</g>
			</g>
			<g>
				<g>
					<path class="st1" d="M194.3,328.5h-1.1v-4.6c0-0.7,0-1.7,0.1-2.2h0c-0.2,0.2-0.4,0.4-0.8,0.8l-0.4,0.4l-0.6-0.8l2-1.6h1V328.5z
						"/>
					<path class="st1" d="M196.7,327.4c0.5,0.2,1,0.3,1.5,0.3c1.4,0,2.3-1.2,2.3-3.2h0c-0.4,0.6-1.2,0.9-1.9,0.9
						c-1.5,0-2.4-1-2.4-2.4c0-1.5,1-2.7,2.6-2.7c1.8,0,2.8,1.3,2.8,3.8c0,2.8-1.2,4.5-3.4,4.5c-0.6,0-1.1-0.1-1.7-0.3L196.7,327.4z
						 M200.3,323c0-1-0.6-1.8-1.5-1.8c-0.9,0-1.5,0.8-1.5,1.8c0,1,0.5,1.7,1.5,1.7C199.7,324.6,200.3,323.9,200.3,323z"/>
				</g>
			</g>
		</g>
		<g>
			<rect x="88.9" y="195.8" class="st2" width="114.3" height="29.3"/>
			<g>
				<g>
					<path class="st3" d="M89.4,208c-2.9,0-5.3-2.4-5.3-5.3v-6.3c0-2.9,2.4-5.3,5.3-5.3h112.8c2.9,0,5.3,2.4,5.3,5.3v6.3
						c0,2.9-2.4,5.3-5.3,5.3H89.4z"/>
					<path class="st2" d="M202.1,192c2.5,0,4.5,2,4.5,4.5v6.3c0,2.5-2,4.5-4.5,4.5H89.4c-2.5,0-4.5-2-4.5-4.5v-6.3
						c0-2.5,2-4.5,4.5-4.5H202.1 M202.1,190.3H89.4c-3.4,0-6.1,2.7-6.1,6.1v6.3c0,3.4,2.7,6.1,6.1,6.1h112.8c3.4,0,6.1-2.7,6.1-6.1
						v-6.3C208.2,193.1,205.5,190.3,202.1,190.3L202.1,190.3z"/>
				</g>
				<rect x="88.9" y="195.8" class="st4" width="14.2" height="7.9"/>
			</g>
			<g>
				<g>
					<path class="st3" d="M89.4,229.1c-2.9,0-5.3-2.4-5.3-5.3v-6.3c0-2.9,2.4-5.3,5.3-5.3h112.8c2.9,0,5.3,2.4,5.3,5.3v6.3
						c0,2.9-2.4,5.3-5.3,5.3H89.4z"/>
					<path class="st2" d="M202.1,213c2.5,0,4.5,2,4.5,4.5v6.3c0,2.5-2,4.5-4.5,4.5H89.4c-2.5,0-4.5-2-4.5-4.5v-6.3
						c0-2.5,2-4.5,4.5-4.5H202.1 M202.1,211.4H89.4c-3.4,0-6.1,2.7-6.1,6.1v6.3c0,3.4,2.7,6.1,6.1,6.1h112.8c3.4,0,6.1-2.7,6.1-6.1
						v-6.3C208.2,214.1,205.5,211.4,202.1,211.4L202.1,211.4z"/>
				</g>
				<rect x="88.9" y="216.8" class="st4" width="14.2" height="7.9"/>
			</g>
		</g>
	</g>
	<g>
		<path class="st5" d="M120.1,135.1h4.3c3.9,0,6.1,1.4,6.1,4.2c0,2.1-1.3,3.4-3.6,3.8v0c2.4,0.3,4,1.7,4,4c0,3.4-3,4.6-6.3,4.6h-4.5
			V135.1z M122.4,142.2h1.3c2.3,0,4.5-0.2,4.5-2.6c0-2-1.6-2.6-4-2.6h-1.7V142.2z M122.4,149.8h1.8c2.9,0,4.3-0.9,4.3-2.8
			c0-2-1.5-2.9-4.9-2.9h-1.2V149.8z"/>
		<path class="st5" d="M135.8,151.7h-2.3v-18h2.3V151.7z"/>
		<path class="st5" d="M150.5,145.7c0,3.7-2.6,6.3-6.2,6.3c-3.6,0-6.2-2.6-6.2-6.3c0-3.8,2.6-6.4,6.3-6.4
			C148,139.3,150.5,142,150.5,145.7z M140.4,145.7c0,2.7,1.6,4.4,3.9,4.4c2.2,0,3.8-1.8,3.8-4.4c0-2.7-1.6-4.6-3.9-4.6
			C142,141.2,140.4,143,140.4,145.7z"/>
		<path class="st5" d="M160.7,141.9c-0.7-0.4-1.4-0.5-2.3-0.5c-2.4,0-4.1,1.7-4.1,4.2c0,2.6,1.6,4.4,4.1,4.4c0.9,0,1.6-0.1,2.5-0.6
			l0.2,2c-0.9,0.4-1.9,0.5-3,0.5c-3.7,0-6.2-2.5-6.2-6.2c0-3.6,2.5-6.2,6.3-6.2c0.9,0,1.8,0.1,2.6,0.5L160.7,141.9z"/>
		<path class="st5" d="M167.4,148.3c-0.8-0.9-1.7-2-2.4-2.9h0v6.3h-2.3v-18h2.3v11h0c0.6-0.7,1.7-1.8,2.5-2.7l2.5-2.5h3l-5.7,5.3
			l6.4,6.8h-3.1L167.4,148.3z"/>
	</g>
	<g>
		<path class="st6" d="M230.7,375.8h-170c-2.6,0-4.6-2.1-4.6-4.6v-15.9c0-2.6,2.1-4.6,4.6-4.6h170c2.6,0,4.6,2.1,4.6,4.6v15.9
			C235.4,373.7,233.3,375.8,230.7,375.8z"/>
		<g>
			<path class="st3" d="M116.8,360c-0.5-0.3-1.2-0.5-1.9-0.5c-2,0-3.4,1.4-3.4,3.5c0,2.1,1.5,3.5,3.5,3.5c0.6,0,1.2-0.1,1.9-0.4
				l0.1,1.2c-0.5,0.2-1.3,0.3-2,0.3c-2.9,0-4.9-1.7-4.9-4.7c0-2.7,2.1-4.6,4.8-4.6c0.7,0,1.4,0.1,2,0.4L116.8,360z"/>
			<path class="st3" d="M119.3,367.6H118v-9.8h1.2V367.6z"/>
			<path class="st3" d="M122.3,359.8h-1.4v-1.4h1.4V359.8z M122.2,367.6h-1.2V361h1.2V367.6z"/>
			<path class="st3" d="M124.7,364.6c0.1,1.3,1,2.1,2.3,2.1c0.8,0,1.3-0.2,1.9-0.5l0,1.1c-0.6,0.3-1.3,0.4-2.1,0.4
				c-2.2,0-3.5-1.3-3.5-3.5c0-2.1,1.3-3.4,3.2-3.4c1.7,0,2.8,1.1,2.8,3.3c0,0.1,0,0.3,0,0.5H124.7z M128.2,363.7
				c0-1.3-0.7-1.9-1.7-1.9c-1,0-1.7,0.7-1.8,1.9H128.2z"/>
			<path class="st3" d="M131.9,362.1c0.5-0.8,1.2-1.2,2.2-1.2c1.9,0,2.5,1.2,2.5,3v3.8h-1.2v-3.3c0-1.3-0.1-2.5-1.5-2.5
				c-0.7,0-1.2,0.4-1.6,0.9c-0.2,0.4-0.3,0.9-0.3,1.6v3.2h-1.2V363c0-0.7,0-1.4-0.1-2h1.2C131.9,361.3,131.9,361.7,131.9,362.1
				L131.9,362.1z"/>
			<path class="st3" d="M140,361h1.8v1H140v2.9c0,1.1,0.1,1.8,1.1,1.8c0.3,0,0.5-0.1,0.7-0.2l0,1c-0.3,0.1-0.7,0.2-1.1,0.2
				c-1.7,0-2.1-1-2.1-2.4V362h-1.5v-1h1.5v-1.6l1.2-0.4V361z"/>
			<path class="st3" d="M148.2,364.9c0.1,0.4,0.4,1.2,0.6,1.7h0c0.2-0.5,0.4-1.3,0.6-1.7l2.2-6.3h1.4l-3.5,9.1H148l-3.5-9.1h1.4
				L148.2,364.9z"/>
			<path class="st3" d="M155.2,359.8h-1.4v-1.4h1.4V359.8z M155.2,367.6h-1.2V361h1.2V367.6z"/>
			<path class="st3" d="M157.1,361.4c0.6-0.4,1.4-0.6,2.2-0.6c1.9,0,2.7,1.1,2.7,2.6c0,0.8,0,1.9,0,2.2c0,0.7,0,1.5,0.1,2h-1.1
				c0-0.1,0-0.4,0-0.5c0-0.2,0-0.4,0-0.6h0c-0.5,0.8-1.2,1.2-2.2,1.2c-1.4,0-2.3-0.8-2.3-2c0-1.4,1.2-2.2,3.5-2.2c0.3,0,0.6,0,0.9,0
				v-0.1c0-1.1-0.6-1.7-1.7-1.7c-0.7,0-1.4,0.3-1.9,0.6L157.1,361.4z M160.1,364.4c-1.6,0-2.4,0.4-2.4,1.3c0,0.7,0.5,1,1.3,1
				c0.7,0,1.4-0.4,1.7-1c0.1-0.3,0.2-0.7,0.2-1.3C160.6,364.4,160.4,364.4,160.1,364.4z"/>
			<path class="st3" d="M174.8,363c0,2.9-1.7,4.7-4.4,4.7c-2.7,0-4.4-1.8-4.4-4.7c0-2.9,1.8-4.7,4.5-4.7
				C173.1,358.4,174.8,360.2,174.8,363z M167.4,363.1c0,2.2,1.2,3.7,3,3.7c1.8,0,3-1.5,3-3.6c0-2.2-1.2-3.7-3-3.7
				C168.7,359.4,167.4,360.9,167.4,363.1z"/>
			<path class="st3" d="M180.4,359.9c-0.6-0.3-1.2-0.4-1.7-0.4c-1,0-1.6,0.5-1.6,1.2c0,0.6,0.3,1,1.7,1.7c1.6,0.7,2.2,1.5,2.2,2.7
				c0,1.6-1.2,2.7-3.1,2.7c-0.8,0-1.5-0.1-2.1-0.4l0.1-1.2c0.7,0.4,1.3,0.5,1.9,0.5c1.1,0,1.8-0.6,1.8-1.5c0-0.8-0.4-1.2-1.8-1.8
				c-1.7-0.8-2.2-1.4-2.2-2.5c0-1.5,1.2-2.5,2.9-2.5c0.7,0,1.3,0.1,1.9,0.3L180.4,359.9z"/>
		</g>
	</g>
	<g>
		<path class="st6" d="M230.7,407.3h-170c-2.6,0-4.6-2.1-4.6-4.6v-15.9c0-2.6,2.1-4.6,4.6-4.6h170c2.6,0,4.6,2.1,4.6,4.6v15.9
			C235.4,405.2,233.3,407.3,230.7,407.3z"/>
		<g>
			<path class="st3" d="M92.2,399.5v-9.1H97v1.1h-3.5v2.9h3.4v1.1h-3.4v4H92.2z"/>
			<path class="st3" d="M99.5,391.6h-1.4v-1.4h1.4V391.6z M99.4,399.5h-1.2v-6.6h1.2V399.5z"/>
			<path class="st3" d="M104.2,394.1l0.8-1.3h1.4l-2.1,3.1l2.3,3.5H105l-0.9-1.4c-0.2-0.3-0.6-1-0.8-1.4c-0.2,0.3-0.6,1-0.8,1.4
				l-0.9,1.4h-1.5l2.4-3.5l-2.2-3.1h1.5l0.8,1.3c0.2,0.3,0.5,0.8,0.7,1.2C103.7,395,104,394.4,104.2,394.1z"/>
			<path class="st3" d="M107.9,396.5c0.1,1.3,1,2.1,2.3,2.1c0.8,0,1.3-0.2,1.9-0.5l0,1.1c-0.6,0.3-1.3,0.4-2.1,0.4
				c-2.2,0-3.5-1.3-3.5-3.5c0-2.1,1.3-3.4,3.2-3.4c1.7,0,2.8,1.1,2.8,3.3c0,0.1,0,0.3,0,0.5H107.9z M111.5,395.5
				c0-1.3-0.7-1.9-1.7-1.9s-1.7,0.7-1.8,1.9H111.5z"/>
			<path class="st3" d="M119.8,397.5c0,0.7,0,1.4,0.1,2h-1.1c0-0.4,0-0.7,0-1.1h0c-0.5,0.8-1.2,1.3-2.2,1.3c-1.8,0-2.9-1.4-2.9-3.4
				c0-2.1,1.2-3.5,2.9-3.5c1,0,1.8,0.4,2.2,1.2h0c0-0.4,0-1,0-1.7v-2.5h1.2V397.5z M114.8,396.2c0,1.4,0.8,2.4,1.9,2.4
				s1.9-1.1,1.9-2.4c0-1.4-0.8-2.5-1.9-2.5C115.6,393.7,114.8,394.8,114.8,396.2z"/>
			<path class="st3" d="M128.5,391.7c-0.6-0.3-1.2-0.4-1.7-0.4c-1,0-1.6,0.5-1.6,1.2c0,0.6,0.3,1,1.7,1.7c1.6,0.7,2.2,1.5,2.2,2.7
				c0,1.6-1.2,2.7-3.1,2.7c-0.8,0-1.5-0.1-2.1-0.4l0.1-1.2c0.7,0.4,1.3,0.5,1.9,0.5c1.1,0,1.8-0.6,1.8-1.5c0-0.8-0.4-1.2-1.8-1.8
				c-1.7-0.8-2.2-1.4-2.2-2.5c0-1.5,1.2-2.5,2.9-2.5c0.7,0,1.3,0.1,1.9,0.3L128.5,391.7z"/>
			<path class="st3" d="M131.9,396.9c0.1,0.4,0.4,1.2,0.5,1.6h0c0.1-0.5,0.4-1.2,0.5-1.6l1.4-4h1.2l-2.4,6.6c-0.8,2.2-1.4,3-2.8,3
				c-0.2,0-0.5,0-0.8-0.1l0.1-1c0.2,0.1,0.4,0.1,0.6,0.1c0.7,0,1-0.4,1.4-1.6l-2.5-6.9h1.3L131.9,396.9z"/>
			<path class="st3" d="M135.8,398.2c0.5,0.3,1.1,0.4,1.6,0.4c0.7,0,1.2-0.3,1.2-0.9c0-0.5-0.4-0.8-1.4-1.3c-1.1-0.5-1.5-1-1.5-1.8
				c0-1.2,1-1.9,2.3-1.9c0.6,0,1.1,0.1,1.5,0.3l-0.1,1c-0.5-0.2-0.9-0.3-1.4-0.3c-0.6,0-1.1,0.3-1.1,0.8c0,0.5,0.4,0.8,1.2,1.1
				c1.2,0.5,1.7,1.1,1.7,2c0,1.3-1,2-2.4,2c-0.7,0-1.2-0.1-1.8-0.3L135.8,398.2z"/>
			<path class="st3" d="M152,399.5h-1.5l-0.9-2.3h-4.4l-0.9,2.3h-1.4l3.9-9.1h1.4L152,399.5z M148,393.2c-0.2-0.4-0.5-1.2-0.6-1.7h0
				c-0.1,0.5-0.4,1.2-0.6,1.7l-1.1,3h3.5L148,393.2z"/>
			<path class="st3" d="M154.2,392.9h1.8v1h-1.8v2.9c0,1.1,0.1,1.8,1.1,1.8c0.3,0,0.5-0.1,0.7-0.2l0,1c-0.3,0.1-0.7,0.2-1.1,0.2
				c-1.7,0-2.1-1-2.1-2.4v-3.2h-1.5v-1h1.5v-1.6l1.2-0.4V392.9z"/>
			<path class="st3" d="M159.2,392.9h1.8v1h-1.8v2.9c0,1.1,0.1,1.8,1.1,1.8c0.3,0,0.5-0.1,0.7-0.2l0,1c-0.3,0.1-0.7,0.2-1.1,0.2
				c-1.7,0-2.1-1-2.1-2.4v-3.2h-1.5v-1h1.5v-1.6l1.2-0.4V392.9z"/>
			<path class="st3" d="M163.2,394c0.4-0.8,1-1.3,1.9-1.3c0.3,0,0.5,0,0.6,0.1v1.2c-0.2-0.1-0.4-0.1-0.7-0.1c-1.1,0-1.8,0.9-1.8,2.6
				v3H162v-4.7c0-0.7,0-1.4-0.1-2h1.2C163.1,393.2,163.2,393.6,163.2,394L163.2,394z"/>
			<path class="st3" d="M167.9,391.6h-1.4v-1.4h1.4V391.6z M167.8,399.5h-1.2v-6.6h1.2V399.5z"/>
			<path class="st3" d="M170.6,398.3c0,0.4,0,0.9-0.1,1.1h-1.1c0.1-0.6,0.1-1.3,0.1-2v-7.8h1.2v2.5c0,0.7,0,1.3,0,1.7h0
				c0.5-0.8,1.3-1.2,2.3-1.2c1.7,0,2.8,1.5,2.8,3.4c0,2-1.1,3.5-2.9,3.5C171.8,399.6,171.1,399.1,170.6,398.3L170.6,398.3z
				 M170.7,396.2c0,1.3,0.8,2.4,1.9,2.4c1.1,0,1.9-1.1,1.9-2.4c0-1.4-0.7-2.5-1.8-2.5C171.6,393.7,170.7,394.8,170.7,396.2z"/>
			<path class="st3" d="M181.7,398.4c-0.4,0.6-1,1.2-2.3,1.2c-1.5,0-2.4-1-2.4-2.7v-4.1h1.2v3.3c0,1.4,0.1,2.5,1.5,2.5
				c1.2,0,1.9-1.1,1.9-2.3v-3.4h1.2v4.6c0,0.7,0,1.4,0.1,2h-1.2C181.7,399.2,181.7,398.9,181.7,398.4L181.7,398.4z"/>
			<path class="st3" d="M186.4,392.9h1.8v1h-1.8v2.9c0,1.1,0.1,1.8,1.1,1.8c0.3,0,0.5-0.1,0.7-0.2l0,1c-0.3,0.1-0.7,0.2-1.1,0.2
				c-1.7,0-2.1-1-2.1-2.4v-3.2h-1.5v-1h1.5v-1.6l1.2-0.4V392.9z"/>
			<path class="st3" d="M189.9,396.5c0.1,1.3,1,2.1,2.3,2.1c0.8,0,1.3-0.2,1.9-0.5l0,1.1c-0.6,0.3-1.3,0.4-2.1,0.4
				c-2.2,0-3.5-1.3-3.5-3.5c0-2.1,1.3-3.4,3.2-3.4c1.7,0,2.8,1.1,2.8,3.3c0,0.1,0,0.3,0,0.5H189.9z M193.4,395.5
				c0-1.3-0.7-1.9-1.7-1.9c-1,0-1.7,0.7-1.8,1.9H193.4z"/>
			<path class="st3" d="M195.4,398.2c0.5,0.3,1.1,0.4,1.6,0.4c0.7,0,1.2-0.3,1.2-0.9c0-0.5-0.4-0.8-1.4-1.3c-1.1-0.5-1.5-1-1.5-1.8
				c0-1.2,1-1.9,2.3-1.9c0.6,0,1.1,0.1,1.5,0.3l-0.1,1c-0.5-0.2-0.9-0.3-1.4-0.3c-0.6,0-1.1,0.3-1.1,0.8c0,0.5,0.4,0.8,1.2,1.1
				c1.2,0.5,1.7,1.1,1.7,2c0,1.3-1,2-2.4,2c-0.7,0-1.2-0.1-1.8-0.3L195.4,398.2z"/>
		</g>
	</g>
	<g>
		<path class="st6" d="M230.7,438.8h-170c-2.6,0-4.6-2.1-4.6-4.6v-15.9c0-2.6,2.1-4.6,4.6-4.6h170c2.6,0,4.6,2.1,4.6,4.6v15.9
			C235.4,436.7,233.3,438.8,230.7,438.8z"/>
		<g>
			<path class="st3" d="M96.2,430.6v-8l-2.8,0v-1.2h6.9v1.2l-2.7,0v8H96.2z"/>
			<path class="st3" d="M101.4,425.1c0.4-0.8,1-1.3,1.9-1.3c0.3,0,0.5,0,0.6,0.1v1.2c-0.2-0.1-0.4-0.1-0.7-0.1
				c-1.1,0-1.8,0.9-1.8,2.6v3h-1.2v-4.7c0-0.7,0-1.4-0.1-2h1.2C101.3,424.3,101.3,424.7,101.4,425.1L101.4,425.1z"/>
			<path class="st3" d="M104.8,424.4c0.6-0.4,1.4-0.6,2.2-0.6c1.9,0,2.7,1.1,2.7,2.6c0,0.8,0,1.9,0,2.2c0,0.7,0,1.5,0.1,2h-1.1
				c0-0.1,0-0.4,0-0.5c0-0.2,0-0.4,0-0.6h0c-0.5,0.8-1.2,1.2-2.2,1.2c-1.4,0-2.3-0.8-2.3-2c0-1.4,1.2-2.2,3.5-2.2c0.3,0,0.6,0,0.9,0
				v-0.1c0-1.1-0.6-1.7-1.7-1.7c-0.7,0-1.4,0.3-1.9,0.6L104.8,424.4z M107.8,427.4c-1.6,0-2.4,0.4-2.4,1.3c0,0.7,0.5,1,1.3,1
				c0.7,0,1.4-0.4,1.7-1c0.1-0.3,0.2-0.7,0.2-1.3C108.4,427.4,108.1,427.4,107.8,427.4z"/>
			<path class="st3" d="M112.5,425c0.5-0.8,1.2-1.2,2.2-1.2c1.9,0,2.5,1.2,2.5,3v3.8H116v-3.3c0-1.3-0.1-2.5-1.5-2.5
				c-0.6,0-1.2,0.4-1.6,0.9c-0.2,0.4-0.3,0.9-0.3,1.6v3.2h-1.2v-4.7c0-0.7,0-1.4-0.1-2h1.2C112.5,424.2,112.5,424.7,112.5,425
				L112.5,425z"/>
			<path class="st3" d="M118.4,429.3c0.5,0.3,1.1,0.4,1.6,0.4c0.7,0,1.2-0.3,1.2-0.9c0-0.5-0.4-0.8-1.4-1.3c-1.1-0.5-1.5-1-1.5-1.8
				c0-1.2,1-1.9,2.3-1.9c0.6,0,1.1,0.1,1.5,0.3l-0.1,1c-0.5-0.2-0.9-0.3-1.4-0.3c-0.6,0-1.1,0.3-1.1,0.8c0,0.5,0.4,0.8,1.2,1.1
				c1.2,0.5,1.7,1.1,1.7,2c0,1.3-1,2-2.4,2c-0.7,0-1.2-0.1-1.8-0.3L118.4,429.3z"/>
			<path class="st3" d="M124,424.4c0.6-0.4,1.4-0.6,2.2-0.6c1.9,0,2.7,1.1,2.7,2.6c0,0.8,0,1.9,0,2.2c0,0.7,0,1.5,0.1,2h-1.1
				c0-0.1,0-0.4,0-0.5c0-0.2,0-0.4,0-0.6h0c-0.5,0.8-1.2,1.2-2.2,1.2c-1.4,0-2.3-0.8-2.3-2c0-1.4,1.2-2.2,3.5-2.2c0.3,0,0.6,0,0.9,0
				v-0.1c0-1.1-0.6-1.7-1.7-1.7c-0.7,0-1.4,0.3-1.9,0.6L124,424.4z M127,427.4c-1.6,0-2.4,0.4-2.4,1.3c0,0.7,0.5,1,1.3,1
				c0.7,0,1.4-0.4,1.7-1c0.1-0.3,0.2-0.7,0.2-1.3C127.5,427.4,127.3,427.4,127,427.4z"/>
			<path class="st3" d="M134.8,425.2c-0.4-0.2-0.8-0.3-1.2-0.3c-1.3,0-2.2,0.9-2.2,2.3c0,1.4,0.9,2.4,2.2,2.4c0.5,0,0.9-0.1,1.4-0.3
				l0.1,1.1c-0.5,0.2-1,0.3-1.6,0.3c-2,0-3.4-1.4-3.4-3.4c0-2,1.4-3.4,3.5-3.4c0.5,0,1,0.1,1.4,0.2L134.8,425.2z"/>
			<path class="st3" d="M138,424h1.8v1H138v2.9c0,1.1,0.1,1.8,1.1,1.8c0.3,0,0.5-0.1,0.7-0.2l0,1c-0.3,0.1-0.7,0.2-1.1,0.2
				c-1.7,0-2.1-1-2.1-2.4V425h-1.5v-1h1.5v-1.6l1.2-0.4V424z"/>
			<path class="st3" d="M142.2,422.8h-1.4v-1.4h1.4V422.8z M142.1,430.6h-1.2V424h1.2V430.6z"/>
			<path class="st3" d="M150.1,427.3c0,2-1.4,3.4-3.4,3.4c-2,0-3.4-1.4-3.4-3.4c0-2.1,1.4-3.5,3.4-3.5
				C148.7,423.8,150.1,425.3,150.1,427.3z M144.6,427.3c0,1.5,0.9,2.4,2.1,2.4c1.2,0,2.1-1,2.1-2.4c0-1.5-0.9-2.5-2.1-2.5
				C145.5,424.8,144.6,425.8,144.6,427.3z"/>
			<path class="st3" d="M152.6,425c0.5-0.8,1.2-1.2,2.2-1.2c1.9,0,2.5,1.2,2.5,3v3.8H156v-3.3c0-1.3-0.1-2.5-1.5-2.5
				c-0.6,0-1.2,0.4-1.6,0.9c-0.2,0.4-0.3,0.9-0.3,1.6v3.2h-1.2v-4.7c0-0.7,0-1.4-0.1-2h1.2C152.5,424.2,152.6,424.7,152.6,425
				L152.6,425z"/>
			<path class="st3" d="M159.1,424.4c0.6-0.4,1.4-0.6,2.2-0.6c1.9,0,2.7,1.1,2.7,2.6c0,0.8,0,1.9,0,2.2c0,0.7,0,1.5,0.1,2h-1.1
				c0-0.1,0-0.4,0-0.5c0-0.2,0-0.4,0-0.6h0c-0.5,0.8-1.2,1.2-2.2,1.2c-1.4,0-2.3-0.8-2.3-2c0-1.4,1.2-2.2,3.5-2.2c0.3,0,0.6,0,0.9,0
				v-0.1c0-1.1-0.6-1.7-1.7-1.7c-0.7,0-1.4,0.3-1.9,0.6L159.1,424.4z M162.1,427.4c-1.6,0-2.4,0.4-2.4,1.3c0,0.7,0.5,1,1.3,1
				c0.7,0,1.4-0.4,1.7-1c0.1-0.3,0.2-0.7,0.2-1.3C162.6,427.4,162.4,427.4,162.1,427.4z"/>
			<path class="st3" d="M166.8,430.6h-1.2v-9.8h1.2V430.6z"/>
			<path class="st3" d="M173.5,421.5c3.1,0,5.5,1.2,5.5,4.6c0,3.2-2.5,4.5-5.5,4.5h-2v-9.1H173.5z M172.8,429.5h0.5
				c2.5,0,4.3-0.8,4.3-3.4c0-2.7-1.8-3.4-4.3-3.4h-0.5V429.5z"/>
			<path class="st3" d="M180.5,424.4c0.6-0.4,1.4-0.6,2.2-0.6c1.9,0,2.7,1.1,2.7,2.6c0,0.8,0,1.9,0,2.2c0,0.7,0,1.5,0.1,2h-1.1
				c0-0.1,0-0.4,0-0.5c0-0.2,0-0.4,0-0.6h0c-0.5,0.8-1.2,1.2-2.2,1.2c-1.4,0-2.3-0.8-2.3-2c0-1.4,1.2-2.2,3.5-2.2c0.3,0,0.6,0,0.9,0
				v-0.1c0-1.1-0.6-1.7-1.7-1.7c-0.7,0-1.4,0.3-1.9,0.6L180.5,424.4z M183.5,427.4c-1.6,0-2.4,0.4-2.4,1.3c0,0.7,0.5,1,1.3,1
				c0.7,0,1.4-0.4,1.7-1c0.1-0.3,0.2-0.7,0.2-1.3C184,427.4,183.8,427.4,183.5,427.4z"/>
			<path class="st3" d="M188.7,424h1.8v1h-1.8v2.9c0,1.1,0.1,1.8,1.1,1.8c0.3,0,0.5-0.1,0.7-0.2l0,1c-0.3,0.1-0.7,0.2-1.1,0.2
				c-1.7,0-2.1-1-2.1-2.4V425H186v-1h1.5v-1.6l1.2-0.4V424z"/>
			<path class="st3" d="M191.9,424.4c0.6-0.4,1.4-0.6,2.2-0.6c1.9,0,2.7,1.1,2.7,2.6c0,0.8,0,1.9,0,2.2c0,0.7,0,1.5,0.1,2h-1.1
				c0-0.1,0-0.4,0-0.5c0-0.2,0-0.4,0-0.6h0c-0.5,0.8-1.2,1.2-2.2,1.2c-1.4,0-2.3-0.8-2.3-2c0-1.4,1.2-2.2,3.5-2.2c0.3,0,0.6,0,0.9,0
				v-0.1c0-1.1-0.6-1.7-1.7-1.7c-0.7,0-1.4,0.3-1.9,0.6L191.9,424.4z M195,427.4c-1.6,0-2.4,0.4-2.4,1.3c0,0.7,0.5,1,1.3,1
				c0.7,0,1.4-0.4,1.7-1c0.1-0.3,0.2-0.7,0.2-1.3C195.5,427.4,195.3,427.4,195,427.4z"/>
		</g>
	</g>
	<g>
		<path class="st6" d="M230.7,470.3h-170c-2.6,0-4.6-2.1-4.6-4.6v-15.9c0-2.6,2.1-4.6,4.6-4.6h170c2.6,0,4.6,2.1,4.6,4.6v15.9
			C235.4,468.2,233.3,470.3,230.7,470.3z"/>
		<g>
			<path class="st3" d="M112.2,453.4c2.1,0,3.7,0.5,3.7,2.7s-1.8,2.7-3.7,2.7h-0.8v3.6h-1.3v-9.1H112.2z M111.4,457.7h0.6
				c1.6,0,2.5-0.3,2.5-1.6c0-1.3-0.9-1.6-2.5-1.6h-0.6V457.7z"/>
			<path class="st3" d="M117.6,459.4c0.1,1.3,1,2.1,2.3,2.1c0.8,0,1.3-0.2,1.9-0.5l0,1.1c-0.6,0.3-1.3,0.4-2.1,0.4
				c-2.2,0-3.5-1.3-3.5-3.5c0-2.1,1.3-3.4,3.2-3.4c1.7,0,2.8,1.1,2.8,3.3c0,0.1,0,0.3,0,0.5H117.6z M121.1,458.5
				c0-1.3-0.7-1.9-1.7-1.9c-1,0-1.7,0.7-1.8,1.9H121.1z"/>
			<path class="st3" d="M124.8,456.9c0.4-0.8,1-1.3,1.9-1.3c0.3,0,0.5,0,0.6,0.1v1.2c-0.2-0.1-0.4-0.1-0.7-0.1
				c-1.1,0-1.8,0.9-1.8,2.6v3h-1.2v-4.7c0-0.7,0-1.4-0.1-2h1.2C124.8,456.1,124.8,456.6,124.8,456.9L124.8,456.9z"/>
			<path class="st3" d="M132.3,453.7c-0.2-0.1-0.4-0.1-0.6-0.1c-0.8,0-1.1,0.5-1.1,1.6v0.7h1.8v1h-1.8v5.6h-1.2v-5.6h-1.6v-1h1.6
				v-0.6c0-1.6,0.5-2.7,2.2-2.7c0.3,0,0.6,0,0.9,0.1L132.3,453.7z"/>
			<path class="st3" d="M139.4,459.2c0,2-1.4,3.4-3.4,3.4c-2,0-3.4-1.4-3.4-3.4c0-2.1,1.4-3.5,3.4-3.5
				C138,455.6,139.4,457.1,139.4,459.2z M133.9,459.2c0,1.5,0.9,2.4,2.1,2.4c1.2,0,2.1-1,2.1-2.4c0-1.5-0.9-2.5-2.1-2.5
				C134.8,456.7,133.9,457.7,133.9,459.2z"/>
			<path class="st3" d="M141.8,456.9c0.4-0.8,1-1.3,1.9-1.3c0.3,0,0.5,0,0.6,0.1v1.2c-0.2-0.1-0.4-0.1-0.7-0.1
				c-1.1,0-1.8,0.9-1.8,2.6v3h-1.2v-4.7c0-0.7,0-1.4-0.1-2h1.2C141.8,456.1,141.8,456.6,141.8,456.9L141.8,456.9z"/>
			<path class="st3" d="M146.4,456.9c0.4-0.7,1.1-1.2,2.1-1.2c1,0,1.6,0.5,1.9,1.4c0.5-0.9,1.2-1.4,2.2-1.4c1.4,0,2.2,0.9,2.2,2.7
				v4.1h-1.2v-4.1c0-1.1-0.4-1.7-1.2-1.7c-0.6,0-1.1,0.3-1.4,0.9c-0.2,0.4-0.3,0.9-0.3,1.7v3.2h-1.2v-3.9c0-1.4-0.3-1.9-1.2-1.9
				c-0.6,0-1.2,0.4-1.5,1c-0.2,0.4-0.3,0.9-0.3,1.6v3.1h-1.2v-4.7c0-0.7,0-1.4-0.1-2h1.2C146.3,456.1,146.4,456.5,146.4,456.9
				L146.4,456.9z"/>
			<path class="st3" d="M156.6,456.2c0.6-0.4,1.4-0.6,2.2-0.6c1.9,0,2.7,1.1,2.7,2.6c0,0.8,0,1.9,0,2.2c0,0.7,0,1.5,0.1,2h-1.1
				c0-0.1,0-0.4,0-0.5c0-0.2,0-0.4,0-0.6h0c-0.5,0.8-1.2,1.2-2.2,1.2c-1.4,0-2.3-0.8-2.3-2c0-1.4,1.2-2.2,3.5-2.2c0.3,0,0.6,0,0.9,0
				v-0.1c0-1.1-0.6-1.7-1.7-1.7c-0.7,0-1.4,0.3-1.9,0.6L156.6,456.2z M159.7,459.2c-1.6,0-2.4,0.4-2.4,1.3c0,0.7,0.5,1,1.3,1
				c0.7,0,1.4-0.4,1.7-1c0.1-0.3,0.2-0.7,0.2-1.3C160.2,459.3,160,459.2,159.7,459.2z"/>
			<path class="st3" d="M164.3,456.9c0.5-0.8,1.2-1.2,2.2-1.2c1.9,0,2.5,1.2,2.5,3v3.8h-1.2v-3.3c0-1.3-0.1-2.5-1.5-2.5
				c-0.7,0-1.2,0.4-1.6,0.9c-0.2,0.4-0.3,0.9-0.3,1.6v3.2h-1.2v-4.7c0-0.7,0-1.4-0.1-2h1.2C164.3,456.1,164.3,456.5,164.3,456.9
				L164.3,456.9z"/>
			<path class="st3" d="M175,457.1c-0.4-0.2-0.8-0.3-1.2-0.3c-1.3,0-2.2,0.9-2.2,2.3c0,1.4,0.9,2.4,2.2,2.4c0.5,0,0.9-0.1,1.4-0.3
				l0.1,1.1c-0.5,0.2-1,0.3-1.6,0.3c-2,0-3.4-1.4-3.4-3.4c0-2,1.4-3.4,3.5-3.4c0.5,0,1,0.1,1.4,0.2L175,457.1z"/>
			<path class="st3" d="M176.8,459.4c0.1,1.3,1,2.1,2.3,2.1c0.8,0,1.3-0.2,1.9-0.5l0,1.1c-0.6,0.3-1.3,0.4-2.1,0.4
				c-2.2,0-3.5-1.3-3.5-3.5c0-2.1,1.3-3.4,3.2-3.4c1.7,0,2.8,1.1,2.8,3.3c0,0.1,0,0.3,0,0.5H176.8z M180.4,458.5
				c0-1.3-0.7-1.9-1.7-1.9s-1.7,0.7-1.8,1.9H180.4z"/>
		</g>
	</g>
</g>
<g>
	<g>
		<polyline class="st7" points="323.2,234.7 323.2,210.4 348,210.4 348,234.7 		"/>
		<polyline class="st7" points="335.6,234.7 335.6,200.7 360.4,200.7 360.4,234.7 		"/>
		<polyline class="st7" points="412.1,234.7 412.1,210.4 387.3,210.4 387.3,234.7 		"/>
		<polyline class="st7" points="429.4,234.7 429.4,217.7 404.7,217.7 404.7,234.7 		"/>
		<polyline class="st7" points="399.7,234.7 399.7,200.7 374.9,200.7 374.9,234.7 		"/>
		<polyline class="st7" points="365.8,234.7 365.8,182 348,182 348,210.4 		"/>
		<g>
			<g>
				<polygon class="st0" points="436.8,336.5 311.7,336.5 311.7,234.7 336.5,234.7 436.8,234.7 				"/>
				<g>
					<line class="st0" x1="335.2" y1="234.7" x2="335.2" y2="336.5"/>
					<line class="st0" x1="361.2" y1="234.7" x2="361.2" y2="336.5"/>
					<line class="st0" x1="387.3" y1="234.7" x2="387.3" y2="336.5"/>
					<line class="st0" x1="413.3" y1="234.7" x2="413.3" y2="336.5"/>
				</g>
				<g>
					<line class="st0" x1="311.7" y1="310.3" x2="436.8" y2="310.3"/>
					<line class="st0" x1="311.7" y1="284.2" x2="436.8" y2="284.2"/>
					<line class="st0" x1="311.7" y1="258.2" x2="436.8" y2="258.2"/>
				</g>
			</g>
			<g>
				<g>
					<path class="st1" d="M325.9,247.2c0,2.2-0.7,4.1-2.7,4.1c-2,0-2.7-1.9-2.7-4.2c0-2.6,0.9-4.1,2.8-4.1
						C325,243,325.9,244.5,325.9,247.2z M321.7,247.2c0,2.1,0.6,3.2,1.6,3.2c1,0,1.5-1.1,1.5-3.2c0-2.1-0.6-3.2-1.5-3.2
						C322.2,244,321.7,245.1,321.7,247.2z"/>
				</g>
			</g>
			<g>
				<g>
					<path class="st1" d="M349,251.2h-1.1v-4.6c0-0.7,0-1.7,0.1-2.2h0c-0.2,0.2-0.4,0.4-0.8,0.8l-0.4,0.4l-0.6-0.8l2-1.6h1V251.2z"
						/>
				</g>
			</g>
			<g>
				<g>
					<path class="st1" d="M371.8,243.5c0.6-0.3,1.3-0.5,2.2-0.5c1.5,0,2.6,0.8,2.6,2.2c0,1-0.6,2-2.1,3.5c-0.7,0.7-1.3,1.1-1.8,1.5
						v0c0.7,0,1.7,0,2.4,0h1.7v0.9h-5.1V250c2.7-2.3,3.8-3.5,3.8-4.7c0-0.9-0.7-1.4-1.6-1.4c-0.6,0-1.2,0.2-1.8,0.6L371.8,243.5z"/>
				</g>
			</g>
			<g>
				<g>
					<path class="st1" d="M398.6,247.5v-0.9c0.1,0,0.2,0,0.3,0c1.5,0,2.4-0.5,2.4-1.4c0-0.8-0.7-1.3-1.7-1.3c-0.6,0-1.1,0.1-1.8,0.4
						l-0.1-1c0.6-0.2,1.3-0.3,2-0.3c1.7,0,2.7,0.8,2.7,2.1c0,1-0.9,1.7-2,1.8v0c1.2,0.1,2.1,0.9,2.1,2c0,1.4-1.1,2.3-2.9,2.3
						c-0.7,0-1.4-0.1-2-0.3l0.1-1c0.7,0.3,1.3,0.5,2,0.5c1,0,1.8-0.5,1.8-1.5c0-1-0.8-1.5-2.4-1.5
						C398.9,247.5,398.8,247.5,398.6,247.5z"/>
				</g>
			</g>
			<g>
				<g>
					<path class="st1" d="M426.5,248.5h1.1v0.9h-1.1v1.8h-1.1v-1.8h-3.8v-0.9l3.3-5.3h1.6V248.5z M425.4,246.2c0-0.7,0-1.5,0-2.4h0
						c-0.2,0.4-0.6,1.1-0.9,1.7l-1.8,2.9h2.7V246.2z"/>
				</g>
			</g>
			<g>
				<g>
					<path class="st1" d="M325.5,269h-3.4l-0.1,2.2c0.3-0.1,0.6-0.1,0.9-0.1c1.6,0,2.8,0.9,2.8,2.5c0,1.6-1.2,2.7-3.1,2.7
						c-0.5,0-1.1-0.1-1.7-0.3l0-1c0.6,0.3,1.1,0.4,1.7,0.4c1.1,0,2-0.6,2-1.7c0-1.1-0.8-1.7-2-1.7c-0.5,0-1.1,0.1-1.6,0.3l0.1-4.2
						h4.4V269z"/>
				</g>
			</g>
			<g>
				<g>
					<path class="st1" d="M350.2,269.1c-0.5-0.2-0.9-0.3-1.4-0.3c-1.4,0-2.3,1.1-2.3,3.1h0c0.4-0.6,1.2-0.9,1.9-0.9
						c1.4,0,2.4,1.1,2.4,2.5c0,1.5-1,2.7-2.6,2.7c-1.8,0-2.8-1.3-2.8-3.9c0-2.8,1.2-4.4,3.4-4.4c0.6,0,1,0.1,1.5,0.2L350.2,269.1z
						 M346.6,273.5c0,1,0.7,1.8,1.5,1.8c0.9,0,1.5-0.8,1.5-1.8c0-1-0.4-1.7-1.5-1.7C347.3,271.8,346.6,272.6,346.6,273.5z"/>
				</g>
			</g>
			<g>
				<g>
					<path class="st1" d="M376.7,269l-3,7h-1.2l3.1-7h-3.9v-1h5.1V269z"/>
				</g>
			</g>
			<g>
				<g>
					<path class="st1" d="M403,273.9c0,1.4-1.3,2.3-2.9,2.3c-1.7,0-2.8-0.8-2.8-2.2c0-1,0.6-1.7,1.8-2.2c-1.2-0.5-1.6-1-1.6-1.9
						c0-1.2,1-2,2.7-2c1.5,0,2.6,0.7,2.6,2c0,0.9-0.6,1.4-1.6,1.9C402.4,272.3,403,272.9,403,273.9z M398.5,274
						c0,0.9,0.7,1.4,1.6,1.4c0.9,0,1.7-0.5,1.7-1.4c0-0.8-0.7-1.3-1.8-1.7C399,272.6,398.5,273.2,398.5,274z M401.5,270
						c0-0.8-0.6-1.2-1.4-1.2c-0.8,0-1.5,0.4-1.5,1.2c0,0.8,0.7,1.2,1.6,1.5C401.1,271.1,401.5,270.6,401.5,270z"/>
				</g>
			</g>
			<g>
				<g>
					<path class="st1" d="M422.4,275c0.5,0.2,1,0.3,1.5,0.3c1.4,0,2.3-1.2,2.3-3.2h0c-0.4,0.6-1.2,0.9-1.9,0.9c-1.5,0-2.4-1-2.4-2.4
						c0-1.5,1-2.7,2.6-2.7c1.8,0,2.8,1.3,2.8,3.8c0,2.8-1.2,4.5-3.4,4.5c-0.6,0-1.1-0.1-1.7-0.3L422.4,275z M426,270.6
						c0-1-0.6-1.8-1.5-1.8c-0.9,0-1.5,0.8-1.5,1.8c0,1,0.5,1.7,1.5,1.7C425.4,272.2,426,271.5,426,270.6z"/>
				</g>
			</g>
			<g>
				<g>
					<path class="st1" d="M321.4,302.4h-1.1v-4.6c0-0.7,0-1.7,0.1-2.2h0c-0.2,0.2-0.4,0.4-0.8,0.8l-0.4,0.4l-0.6-0.8l2-1.6h1V302.4z
						"/>
					<path class="st1" d="M328.8,298.5c0,2.2-0.7,4.1-2.7,4.1c-2,0-2.7-1.9-2.7-4.2c0-2.6,0.9-4.1,2.8-4.1
						C327.9,294.3,328.8,295.8,328.8,298.5z M324.6,298.4c0,2.1,0.6,3.2,1.6,3.2c1,0,1.5-1.1,1.5-3.2c0-2.1-0.6-3.2-1.5-3.2
						C325.1,295.2,324.6,296.3,324.6,298.4z"/>
				</g>
			</g>
			<g>
				<g>
					<path class="st1" d="M346.5,302.4h-1.1v-4.6c0-0.7,0-1.7,0.1-2.2h0c-0.2,0.2-0.4,0.4-0.8,0.8l-0.4,0.4l-0.6-0.8l2-1.6h1V302.4z
						"/>
					<path class="st1" d="M351.6,302.4h-1.1v-4.6c0-0.7,0-1.7,0.1-2.2h0c-0.2,0.2-0.4,0.4-0.8,0.8l-0.4,0.4l-0.6-0.8l2-1.6h1V302.4z
						"/>
				</g>
			</g>
			<g>
				<g>
					<path class="st1" d="M372.5,302.4h-1.1v-4.6c0-0.7,0-1.7,0.1-2.2h0c-0.2,0.2-0.4,0.4-0.8,0.8l-0.4,0.4l-0.6-0.8l2-1.6h1V302.4z
						"/>
					<path class="st1" d="M374.6,294.7c0.6-0.3,1.3-0.5,2.2-0.5c1.5,0,2.6,0.8,2.6,2.2c0,1-0.6,2-2.1,3.5c-0.7,0.7-1.3,1.1-1.8,1.5
						v0c0.7,0,1.7,0,2.4,0h1.7v0.9h-5.1v-1.1c2.7-2.3,3.8-3.5,3.8-4.7c0-0.9-0.7-1.4-1.6-1.4c-0.6,0-1.2,0.2-1.8,0.6L374.6,294.7z"
						/>
				</g>
			</g>
			<g>
				<g>
					<path class="st1" d="M398.5,302.4h-1.1v-4.6c0-0.7,0-1.7,0.1-2.2h0c-0.2,0.2-0.4,0.4-0.8,0.8l-0.4,0.4l-0.6-0.8l2-1.6h1V302.4z
						"/>
					<path class="st1" d="M401.4,298.7v-0.9c0.1,0,0.2,0,0.3,0c1.5,0,2.4-0.5,2.4-1.4c0-0.8-0.7-1.3-1.7-1.3c-0.6,0-1.1,0.1-1.8,0.4
						l-0.1-1c0.6-0.2,1.3-0.3,2-0.3c1.7,0,2.7,0.8,2.7,2.1c0,1-0.9,1.7-2,1.8v0c1.2,0.1,2.1,0.9,2.1,2c0,1.4-1.1,2.3-2.9,2.3
						c-0.7,0-1.4-0.1-2-0.3l0.1-1c0.7,0.3,1.3,0.5,2,0.5c1,0,1.8-0.5,1.8-1.5c0-1-0.8-1.5-2.4-1.5
						C401.6,298.7,401.5,298.7,401.4,298.7z"/>
				</g>
			</g>
			<g>
				<g>
					<path class="st1" d="M422.8,302.4h-1.1v-4.6c0-0.7,0-1.7,0.1-2.2h0c-0.2,0.2-0.4,0.4-0.8,0.8l-0.4,0.4l-0.6-0.8l2-1.6h1V302.4z
						"/>
					<path class="st1" d="M429.3,299.7h1.1v0.9h-1.1v1.8h-1.1v-1.8h-3.8v-0.9l3.3-5.3h1.6V299.7z M428.2,297.5c0-0.7,0-1.5,0-2.4h0
						c-0.2,0.4-0.6,1.1-0.9,1.7l-1.8,2.9h2.7V297.5z"/>
				</g>
			</g>
			<g>
				<g>
					<path class="st1" d="M321.5,328.5h-1.1v-4.6c0-0.7,0-1.7,0.1-2.2h0c-0.2,0.2-0.4,0.4-0.8,0.8l-0.4,0.4l-0.6-0.8l2-1.6h1V328.5z
						"/>
					<path class="st1" d="M328.3,321.4h-3.4l-0.1,2.2c0.3-0.1,0.6-0.1,0.9-0.1c1.6,0,2.8,0.9,2.8,2.5c0,1.6-1.2,2.7-3.1,2.7
						c-0.5,0-1.1-0.1-1.7-0.3l0-1c0.6,0.3,1.1,0.4,1.7,0.4c1.1,0,2-0.6,2-1.7c0-1.1-0.8-1.7-2-1.7c-0.5,0-1.1,0.1-1.6,0.3l0.1-4.2
						h4.4V321.4z"/>
				</g>
			</g>
			<g>
				<g>
					<path class="st1" d="M346.2,328.5H345v-4.6c0-0.7,0-1.7,0.1-2.2h0c-0.2,0.2-0.4,0.4-0.8,0.8l-0.4,0.4l-0.6-0.8l2-1.6h1V328.5z"
						/>
					<path class="st1" d="M353,321.5c-0.5-0.2-0.9-0.3-1.4-0.3c-1.4,0-2.3,1.1-2.3,3.1h0c0.4-0.6,1.2-0.9,1.9-0.9
						c1.4,0,2.4,1.1,2.4,2.5c0,1.5-1,2.7-2.6,2.7c-1.8,0-2.8-1.3-2.8-3.9c0-2.8,1.2-4.4,3.4-4.4c0.6,0,1,0.1,1.5,0.2L353,321.5z
						 M349.5,325.9c0,1,0.7,1.8,1.5,1.8c0.9,0,1.5-0.8,1.5-1.8c0-1-0.4-1.7-1.5-1.7C350.1,324.3,349.5,325,349.5,325.9z"/>
				</g>
			</g>
			<g>
				<g>
					<path class="st1" d="M372.5,328.5h-1.1v-4.6c0-0.7,0-1.7,0.1-2.2h0c-0.2,0.2-0.4,0.4-0.8,0.8l-0.4,0.4l-0.6-0.8l2-1.6h1V328.5z
						"/>
					<path class="st1" d="M379.4,321.4l-3,7h-1.2l3.1-7h-3.9v-1h5.1V321.4z"/>
				</g>
			</g>
			<g>
				<g>
					<path class="st1" d="M398.3,328.5h-1.1v-4.6c0-0.7,0-1.7,0.1-2.2h0c-0.2,0.2-0.4,0.4-0.8,0.8l-0.4,0.4l-0.6-0.8l2-1.6h1V328.5z
						"/>
					<path class="st1" d="M405.9,326.3c0,1.4-1.3,2.3-2.9,2.3c-1.7,0-2.8-0.8-2.8-2.2c0-1,0.6-1.7,1.8-2.2c-1.2-0.5-1.6-1-1.6-1.9
						c0-1.2,1-2,2.7-2c1.5,0,2.6,0.7,2.6,2c0,0.9-0.6,1.4-1.6,1.9C405.3,324.7,405.9,325.3,405.9,326.3z M401.4,326.4
						c0,0.9,0.7,1.4,1.6,1.4c0.9,0,1.7-0.5,1.7-1.4c0-0.8-0.7-1.3-1.8-1.7C401.9,325,401.4,325.6,401.4,326.4z M404.4,322.4
						c0-0.8-0.6-1.2-1.4-1.2c-0.8,0-1.5,0.4-1.5,1.2c0,0.8,0.7,1.2,1.6,1.5C404,323.5,404.4,323,404.4,322.4z"/>
				</g>
			</g>
			<g>
				<g>
					<path class="st1" d="M422.8,328.5h-1.1v-4.6c0-0.7,0-1.7,0.1-2.2h0c-0.2,0.2-0.4,0.4-0.8,0.8l-0.4,0.4l-0.6-0.8l2-1.6h1V328.5z
						"/>
					<path class="st1" d="M425.2,327.4c0.5,0.2,1,0.3,1.5,0.3c1.4,0,2.3-1.2,2.3-3.2h0c-0.4,0.6-1.2,0.9-1.9,0.9
						c-1.5,0-2.4-1-2.4-2.4c0-1.5,1-2.7,2.6-2.7c1.8,0,2.8,1.3,2.8,3.8c0,2.8-1.2,4.5-3.4,4.5c-0.6,0-1.1-0.1-1.7-0.3L425.2,327.4z
						 M428.8,323c0-1-0.6-1.8-1.5-1.8c-0.9,0-1.5,0.8-1.5,1.8c0,1,0.5,1.7,1.5,1.7C428.2,324.6,428.8,323.9,428.8,323z"/>
				</g>
			</g>
		</g>
		<g>
			<line class="st7" x1="387.3" y1="200.7" x2="387.3" y2="187.4"/>
			<g>
				<circle class="st4" cx="387.3" cy="187.6" r="3.5"/>
			</g>
		</g>
		<g>
			<line class="st7" x1="356.9" y1="182.7" x2="356.9" y2="169.4"/>
			<g>
				<circle class="st4" cx="356.9" cy="169.6" r="3.5"/>
			</g>
		</g>
		<g>
			<line class="st7" x1="417" y1="218.2" x2="417" y2="204.9"/>
			<g>
				<circle class="st4" cx="417" cy="205.1" r="3.5"/>
			</g>
		</g>
		<g>
			<line class="st8" x1="399.7" y1="212.9" x2="399.7" y2="210"/>
			<g>
				<circle class="st4" cx="399.7" cy="210.2" r="3.5"/>
			</g>
		</g>
		<g>
			<line class="st8" x1="348" y1="203.8" x2="348" y2="200.9"/>
			<g>
				<circle class="st4" cx="348" cy="201.1" r="3.5"/>
			</g>
		</g>
		<g>
			<line class="st8" x1="335.6" y1="213.5" x2="335.6" y2="210.6"/>
			<g>
				<circle class="st4" cx="335.6" cy="210.7" r="3.5"/>
			</g>
		</g>
	</g>
	<g>
		<path class="st5" d="M359.4,151.7v-16.6h8.8v2h-6.4v5.3h6.2v2h-6.2v7.3H359.4z"/>
		<path class="st5" d="M372.6,137.4h-2.5v-2.5h2.5V137.4z M372.5,151.7h-2.3v-12.2h2.3V151.7z"/>
		<path class="st5" d="M377.8,151.7h-2.3v-18h2.3V151.7z"/>
		<path class="st5" d="M382.3,146.2c0.1,2.5,1.8,3.9,4.2,3.9c1.4,0,2.5-0.3,3.6-0.9l0.1,2.1c-1.1,0.5-2.3,0.7-3.8,0.7
			c-4.1,0-6.4-2.5-6.4-6.5c0-3.8,2.3-6.3,5.8-6.3c3.2,0,5.2,1.9,5.2,6c0,0.2,0,0.6,0,0.9H382.3z M388.8,144.5c0-2.3-1.3-3.5-3.1-3.5
			c-1.8,0-3.2,1.3-3.4,3.5H388.8z"/>
	</g>
	<g>
		<path class="st6" d="M459.2,375.8h-170c-2.6,0-4.6-2.1-4.6-4.6v-15.9c0-2.6,2.1-4.6,4.6-4.6h170c2.6,0,4.6,2.1,4.6,4.6v15.9
			C463.9,373.7,461.8,375.8,459.2,375.8z"/>
		<g>
			<path class="st3" d="M345.3,360c-0.5-0.3-1.2-0.5-1.9-0.5c-2,0-3.4,1.4-3.4,3.5c0,2.1,1.5,3.5,3.5,3.5c0.6,0,1.2-0.1,1.9-0.4
				l0.1,1.2c-0.5,0.2-1.3,0.3-2,0.3c-2.9,0-4.9-1.7-4.9-4.7c0-2.7,2.1-4.6,4.8-4.6c0.7,0,1.4,0.1,2,0.4L345.3,360z"/>
			<path class="st3" d="M347.8,367.6h-1.2v-9.8h1.2V367.6z"/>
			<path class="st3" d="M350.8,359.8h-1.4v-1.4h1.4V359.8z M350.7,367.6h-1.2V361h1.2V367.6z"/>
			<path class="st3" d="M353.2,364.6c0.1,1.3,1,2.1,2.3,2.1c0.8,0,1.3-0.2,1.9-0.5l0,1.1c-0.6,0.3-1.3,0.4-2.1,0.4
				c-2.2,0-3.5-1.3-3.5-3.5c0-2.1,1.3-3.4,3.2-3.4c1.7,0,2.8,1.1,2.8,3.3c0,0.1,0,0.3,0,0.5H353.2z M356.7,363.7
				c0-1.3-0.7-1.9-1.7-1.9c-1,0-1.7,0.7-1.8,1.9H356.7z"/>
			<path class="st3" d="M360.4,362.1c0.5-0.8,1.2-1.2,2.2-1.2c1.9,0,2.5,1.2,2.5,3v3.8h-1.2v-3.3c0-1.3-0.1-2.5-1.5-2.5
				c-0.7,0-1.2,0.4-1.6,0.9c-0.2,0.4-0.3,0.9-0.3,1.6v3.2h-1.2V363c0-0.7,0-1.4-0.1-2h1.2C360.4,361.3,360.4,361.7,360.4,362.1
				L360.4,362.1z"/>
			<path class="st3" d="M368.5,361h1.8v1h-1.8v2.9c0,1.1,0.1,1.8,1.1,1.8c0.3,0,0.5-0.1,0.7-0.2l0,1c-0.3,0.1-0.7,0.2-1.1,0.2
				c-1.7,0-2.1-1-2.1-2.4V362h-1.5v-1h1.5v-1.6l1.2-0.4V361z"/>
			<path class="st3" d="M376.7,364.9c0.1,0.4,0.4,1.2,0.6,1.7h0c0.2-0.5,0.4-1.3,0.6-1.7l2.2-6.3h1.4l-3.5,9.1h-1.6l-3.5-9.1h1.4
				L376.7,364.9z"/>
			<path class="st3" d="M383.7,359.8h-1.4v-1.4h1.4V359.8z M383.7,367.6h-1.2V361h1.2V367.6z"/>
			<path class="st3" d="M385.6,361.4c0.6-0.4,1.4-0.6,2.2-0.6c1.9,0,2.7,1.1,2.7,2.6c0,0.8,0,1.9,0,2.2c0,0.7,0,1.5,0.1,2h-1.1
				c0-0.1,0-0.4,0-0.5c0-0.2,0-0.4,0-0.6h0c-0.5,0.8-1.2,1.2-2.2,1.2c-1.4,0-2.3-0.8-2.3-2c0-1.4,1.2-2.2,3.5-2.2c0.3,0,0.6,0,0.9,0
				v-0.1c0-1.1-0.6-1.7-1.7-1.7c-0.7,0-1.4,0.3-1.9,0.6L385.6,361.4z M388.6,364.4c-1.6,0-2.4,0.4-2.4,1.3c0,0.7,0.5,1,1.3,1
				c0.7,0,1.4-0.4,1.7-1c0.1-0.3,0.2-0.7,0.2-1.3C389.1,364.4,388.9,364.4,388.6,364.4z"/>
			<path class="st3" d="M403.3,363c0,2.9-1.7,4.7-4.4,4.7c-2.7,0-4.4-1.8-4.4-4.7c0-2.9,1.8-4.7,4.5-4.7
				C401.6,358.4,403.3,360.2,403.3,363z M395.9,363.1c0,2.2,1.2,3.7,3,3.7c1.8,0,3-1.5,3-3.6c0-2.2-1.2-3.7-3-3.7
				C397.2,359.4,395.9,360.9,395.9,363.1z"/>
			<path class="st3" d="M408.9,359.9c-0.6-0.3-1.2-0.4-1.7-0.4c-1,0-1.6,0.5-1.6,1.2c0,0.6,0.3,1,1.7,1.7c1.6,0.7,2.2,1.5,2.2,2.7
				c0,1.6-1.2,2.7-3.1,2.7c-0.8,0-1.5-0.1-2.1-0.4l0.1-1.2c0.7,0.4,1.3,0.5,1.9,0.5c1.1,0,1.8-0.6,1.8-1.5c0-0.8-0.4-1.2-1.8-1.8
				c-1.7-0.8-2.2-1.4-2.2-2.5c0-1.5,1.2-2.5,2.9-2.5c0.7,0,1.3,0.1,1.9,0.3L408.9,359.9z"/>
		</g>
	</g>
	<g>
		<path class="st6" d="M459.2,407.3h-170c-2.6,0-4.6-2.1-4.6-4.6v-15.9c0-2.6,2.1-4.6,4.6-4.6h170c2.6,0,4.6,2.1,4.6,4.6v15.9
			C463.9,405.2,461.8,407.3,459.2,407.3z"/>
		<g>
			<path class="st3" d="M320.7,399.5v-9.1h4.8v1.1H322v2.9h3.4v1.1H322v4H320.7z"/>
			<path class="st3" d="M328,391.6h-1.4v-1.4h1.4V391.6z M327.9,399.5h-1.2v-6.6h1.2V399.5z"/>
			<path class="st3" d="M332.7,394.1l0.8-1.3h1.4l-2.1,3.1l2.3,3.5h-1.5l-0.9-1.4c-0.2-0.3-0.6-1-0.8-1.4c-0.2,0.3-0.6,1-0.8,1.4
				l-0.9,1.4h-1.5l2.4-3.5l-2.2-3.1h1.5l0.8,1.3c0.2,0.3,0.5,0.8,0.7,1.2C332.2,395,332.5,394.4,332.7,394.1z"/>
			<path class="st3" d="M336.4,396.5c0.1,1.3,1,2.1,2.3,2.1c0.8,0,1.3-0.2,1.9-0.5l0,1.1c-0.6,0.3-1.3,0.4-2.1,0.4
				c-2.2,0-3.5-1.3-3.5-3.5c0-2.1,1.3-3.4,3.2-3.4c1.7,0,2.8,1.1,2.8,3.3c0,0.1,0,0.3,0,0.5H336.4z M340,395.5
				c0-1.3-0.7-1.9-1.7-1.9s-1.7,0.7-1.8,1.9H340z"/>
			<path class="st3" d="M348.3,397.5c0,0.7,0,1.4,0.1,2h-1.1c0-0.4,0-0.7,0-1.1h0c-0.5,0.8-1.2,1.3-2.2,1.3c-1.8,0-2.9-1.4-2.9-3.4
				c0-2.1,1.2-3.5,2.9-3.5c1,0,1.8,0.4,2.2,1.2h0c0-0.4,0-1,0-1.7v-2.5h1.2V397.5z M343.3,396.2c0,1.4,0.8,2.4,1.9,2.4
				s1.9-1.1,1.9-2.4c0-1.4-0.8-2.5-1.9-2.5C344.1,393.7,343.3,394.8,343.3,396.2z"/>
			<path class="st3" d="M357,391.7c-0.6-0.3-1.2-0.4-1.7-0.4c-1,0-1.6,0.5-1.6,1.2c0,0.6,0.3,1,1.7,1.7c1.6,0.7,2.2,1.5,2.2,2.7
				c0,1.6-1.2,2.7-3.1,2.7c-0.8,0-1.5-0.1-2.1-0.4l0.1-1.2c0.7,0.4,1.3,0.5,1.9,0.5c1.1,0,1.8-0.6,1.8-1.5c0-0.8-0.4-1.2-1.8-1.8
				c-1.7-0.8-2.2-1.4-2.2-2.5c0-1.5,1.2-2.5,2.9-2.5c0.7,0,1.3,0.1,1.9,0.3L357,391.7z"/>
			<path class="st3" d="M360.4,396.9c0.1,0.4,0.4,1.2,0.5,1.6h0c0.1-0.5,0.4-1.2,0.5-1.6l1.4-4h1.2l-2.4,6.6c-0.8,2.2-1.4,3-2.8,3
				c-0.2,0-0.5,0-0.8-0.1l0.1-1c0.2,0.1,0.4,0.1,0.6,0.1c0.7,0,1-0.4,1.4-1.6l-2.5-6.9h1.3L360.4,396.9z"/>
			<path class="st3" d="M364.3,398.2c0.5,0.3,1.1,0.4,1.6,0.4c0.7,0,1.2-0.3,1.2-0.9c0-0.5-0.4-0.8-1.4-1.3c-1.1-0.5-1.5-1-1.5-1.8
				c0-1.2,1-1.9,2.3-1.9c0.6,0,1.1,0.1,1.5,0.3l-0.1,1c-0.5-0.2-0.9-0.3-1.4-0.3c-0.6,0-1.1,0.3-1.1,0.8c0,0.5,0.4,0.8,1.2,1.1
				c1.2,0.5,1.7,1.1,1.7,2c0,1.3-1,2-2.4,2c-0.7,0-1.2-0.1-1.8-0.3L364.3,398.2z"/>
			<path class="st3" d="M380.5,399.5H379l-0.9-2.3h-4.4l-0.9,2.3h-1.4l3.9-9.1h1.4L380.5,399.5z M376.5,393.2
				c-0.2-0.4-0.5-1.2-0.6-1.7h0c-0.1,0.5-0.4,1.2-0.6,1.7l-1.1,3h3.5L376.5,393.2z"/>
			<path class="st3" d="M382.7,392.9h1.8v1h-1.8v2.9c0,1.1,0.1,1.8,1.1,1.8c0.3,0,0.5-0.1,0.7-0.2l0,1c-0.3,0.1-0.7,0.2-1.1,0.2
				c-1.7,0-2.1-1-2.1-2.4v-3.2H380v-1h1.5v-1.6l1.2-0.4V392.9z"/>
			<path class="st3" d="M387.7,392.9h1.8v1h-1.8v2.9c0,1.1,0.1,1.8,1.1,1.8c0.3,0,0.5-0.1,0.7-0.2l0,1c-0.3,0.1-0.7,0.2-1.1,0.2
				c-1.7,0-2.1-1-2.1-2.4v-3.2h-1.5v-1h1.5v-1.6l1.2-0.4V392.9z"/>
			<path class="st3" d="M391.7,394c0.4-0.8,1-1.3,1.9-1.3c0.3,0,0.5,0,0.6,0.1v1.2c-0.2-0.1-0.4-0.1-0.7-0.1c-1.1,0-1.8,0.9-1.8,2.6
				v3h-1.2v-4.7c0-0.7,0-1.4-0.1-2h1.2C391.7,393.2,391.7,393.6,391.7,394L391.7,394z"/>
			<path class="st3" d="M396.4,391.6H395v-1.4h1.4V391.6z M396.3,399.5h-1.2v-6.6h1.2V399.5z"/>
			<path class="st3" d="M399.1,398.3c0,0.4,0,0.9-0.1,1.1h-1.1c0.1-0.6,0.1-1.3,0.1-2v-7.8h1.2v2.5c0,0.7,0,1.3,0,1.7h0
				c0.5-0.8,1.3-1.2,2.3-1.2c1.7,0,2.8,1.5,2.8,3.4c0,2-1.1,3.5-2.9,3.5C400.3,399.6,399.6,399.1,399.1,398.3L399.1,398.3z
				 M399.2,396.2c0,1.3,0.8,2.4,1.9,2.4c1.1,0,1.9-1.1,1.9-2.4c0-1.4-0.7-2.5-1.8-2.5C400.1,393.7,399.2,394.8,399.2,396.2z"/>
			<path class="st3" d="M410.2,398.4c-0.4,0.6-1,1.2-2.3,1.2c-1.5,0-2.4-1-2.4-2.7v-4.1h1.2v3.3c0,1.4,0.1,2.5,1.5,2.5
				c1.2,0,1.9-1.1,1.9-2.3v-3.4h1.2v4.6c0,0.7,0,1.4,0.1,2h-1.2C410.2,399.2,410.2,398.9,410.2,398.4L410.2,398.4z"/>
			<path class="st3" d="M414.9,392.9h1.8v1h-1.8v2.9c0,1.1,0.1,1.8,1.1,1.8c0.3,0,0.5-0.1,0.7-0.2l0,1c-0.3,0.1-0.7,0.2-1.1,0.2
				c-1.7,0-2.1-1-2.1-2.4v-3.2h-1.5v-1h1.5v-1.6l1.2-0.4V392.9z"/>
			<path class="st3" d="M418.4,396.5c0.1,1.3,1,2.1,2.3,2.1c0.8,0,1.3-0.2,1.9-0.5l0,1.1c-0.6,0.3-1.3,0.4-2.1,0.4
				c-2.2,0-3.5-1.3-3.5-3.5c0-2.1,1.3-3.4,3.2-3.4c1.7,0,2.8,1.1,2.8,3.3c0,0.1,0,0.3,0,0.5H418.4z M421.9,395.5
				c0-1.3-0.7-1.9-1.7-1.9s-1.7,0.7-1.8,1.9H421.9z"/>
			<path class="st3" d="M423.9,398.2c0.5,0.3,1.1,0.4,1.6,0.4c0.7,0,1.2-0.3,1.2-0.9c0-0.5-0.4-0.8-1.4-1.3c-1.1-0.5-1.5-1-1.5-1.8
				c0-1.2,1-1.9,2.3-1.9c0.6,0,1.1,0.1,1.5,0.3l-0.1,1c-0.5-0.2-0.9-0.3-1.4-0.3c-0.6,0-1.1,0.3-1.1,0.8c0,0.5,0.4,0.8,1.2,1.1
				c1.2,0.5,1.7,1.1,1.7,2c0,1.3-1,2-2.4,2c-0.7,0-1.2-0.1-1.8-0.3L423.9,398.2z"/>
		</g>
	</g>
	<g>
		<path class="st6" d="M459.2,438.8h-170c-2.6,0-4.6-2.1-4.6-4.6v-15.9c0-2.6,2.1-4.6,4.6-4.6h170c2.6,0,4.6,2.1,4.6,4.6v15.9
			C463.9,436.7,461.8,438.8,459.2,438.8z"/>
		<g>
			<path class="st3" d="M319.9,422.8c-0.6-0.3-1.2-0.4-1.7-0.4c-1,0-1.6,0.5-1.6,1.2c0,0.6,0.3,1,1.7,1.7c1.6,0.7,2.2,1.5,2.2,2.7
				c0,1.6-1.2,2.7-3.1,2.7c-0.8,0-1.5-0.1-2.1-0.4l0.1-1.2c0.7,0.4,1.3,0.5,1.9,0.5c1.1,0,1.8-0.6,1.8-1.5c0-0.8-0.4-1.2-1.8-1.8
				c-1.7-0.8-2.2-1.4-2.2-2.5c0-1.5,1.2-2.5,2.9-2.5c0.7,0,1.3,0.1,1.9,0.3L319.9,422.8z"/>
			<path class="st3" d="M323,423.3c0,0.7,0,1.4,0,1.7h0c0.5-0.7,1.2-1.2,2.2-1.2c1.9,0,2.5,1.2,2.5,3v3.8h-1.2v-3.3
				c0-1.3-0.1-2.5-1.5-2.5c-0.6,0-1.2,0.4-1.6,0.9c-0.2,0.4-0.3,0.9-0.3,1.6v3.2h-1.2v-9.8h1.2V423.3z"/>
			<path class="st3" d="M329.5,424.4c0.6-0.4,1.4-0.6,2.2-0.6c1.9,0,2.7,1.1,2.7,2.6c0,0.8,0,1.9,0,2.2c0,0.7,0,1.5,0.1,2h-1.1
				c0-0.1,0-0.4,0-0.5c0-0.2,0-0.4,0-0.6h0c-0.5,0.8-1.2,1.2-2.2,1.2c-1.4,0-2.3-0.8-2.3-2c0-1.4,1.2-2.2,3.5-2.2c0.3,0,0.6,0,0.9,0
				v-0.1c0-1.1-0.6-1.7-1.7-1.7c-0.7,0-1.4,0.3-1.9,0.6L329.5,424.4z M332.5,427.4c-1.6,0-2.4,0.4-2.4,1.3c0,0.7,0.5,1,1.3,1
				c0.7,0,1.4-0.4,1.7-1c0.1-0.3,0.2-0.7,0.2-1.3C333,427.4,332.8,427.4,332.5,427.4z"/>
			<path class="st3" d="M337.2,425.1c0.4-0.8,1-1.3,1.9-1.3c0.3,0,0.5,0,0.6,0.1v1.2c-0.2-0.1-0.4-0.1-0.7-0.1
				c-1.1,0-1.8,0.9-1.8,2.6v3h-1.2v-4.7c0-0.7,0-1.4-0.1-2h1.2C337.1,424.3,337.2,424.7,337.2,425.1L337.2,425.1z"/>
			<path class="st3" d="M341.3,427.6c0.1,1.3,1,2.1,2.3,2.1c0.8,0,1.3-0.2,1.9-0.5l0,1.1c-0.6,0.3-1.3,0.4-2.1,0.4
				c-2.2,0-3.5-1.3-3.5-3.5c0-2.1,1.3-3.4,3.2-3.4c1.7,0,2.8,1.1,2.8,3.3c0,0.1,0,0.3,0,0.5H341.3z M344.8,426.6
				c0-1.3-0.7-1.9-1.7-1.9c-1,0-1.7,0.7-1.8,1.9H344.8z"/>
			<path class="st3" d="M353.2,428.6c0,0.7,0,1.4,0.1,2h-1.1c0-0.4,0-0.7,0-1.1h0c-0.5,0.8-1.2,1.3-2.2,1.3c-1.8,0-2.9-1.4-2.9-3.4
				c0-2.1,1.2-3.5,2.9-3.5c1,0,1.8,0.4,2.2,1.2h0c0-0.4,0-1,0-1.7v-2.5h1.2V428.6z M348.2,427.3c0,1.4,0.8,2.4,1.9,2.4
				s1.9-1.1,1.9-2.4c0-1.4-0.8-2.5-1.9-2.5C349,424.8,348.2,425.9,348.2,427.3z"/>
			<path class="st3" d="M364,423c-0.5-0.3-1.2-0.5-1.9-0.5c-2,0-3.4,1.4-3.4,3.5c0,2.1,1.5,3.5,3.5,3.5c0.6,0,1.2-0.1,1.9-0.4
				l0.1,1.2c-0.5,0.2-1.3,0.3-2,0.3c-2.9,0-4.9-1.7-4.9-4.7c0-2.7,2.1-4.6,4.8-4.6c0.7,0,1.4,0.1,2,0.4L364,423z"/>
			<path class="st3" d="M366.4,423.3c0,0.7,0,1.4,0,1.7h0c0.5-0.7,1.2-1.2,2.2-1.2c1.9,0,2.5,1.2,2.5,3v3.8h-1.2v-3.3
				c0-1.3-0.1-2.5-1.5-2.5c-0.6,0-1.2,0.4-1.6,0.9c-0.2,0.4-0.3,0.9-0.3,1.6v3.2h-1.2v-9.8h1.2V423.3z"/>
			<path class="st3" d="M372.9,424.4c0.6-0.4,1.4-0.6,2.2-0.6c1.9,0,2.7,1.1,2.7,2.6c0,0.8,0,1.9,0,2.2c0,0.7,0,1.5,0.1,2h-1.1
				c0-0.1,0-0.4,0-0.5c0-0.2,0-0.4,0-0.6h0c-0.5,0.8-1.2,1.2-2.2,1.2c-1.4,0-2.3-0.8-2.3-2c0-1.4,1.2-2.2,3.5-2.2c0.3,0,0.6,0,0.9,0
				v-0.1c0-1.1-0.6-1.7-1.7-1.7c-0.7,0-1.4,0.3-1.9,0.6L372.9,424.4z M375.9,427.4c-1.6,0-2.4,0.4-2.4,1.3c0,0.7,0.5,1,1.3,1
				c0.7,0,1.4-0.4,1.7-1c0.1-0.3,0.2-0.7,0.2-1.3C376.5,427.4,376.2,427.4,375.9,427.4z"/>
			<path class="st3" d="M380.6,425c0.5-0.8,1.2-1.2,2.2-1.2c1.9,0,2.5,1.2,2.5,3v3.8h-1.2v-3.3c0-1.3-0.1-2.5-1.5-2.5
				c-0.7,0-1.2,0.4-1.6,0.9c-0.2,0.4-0.3,0.9-0.3,1.6v3.2h-1.2v-4.7c0-0.7,0-1.4-0.1-2h1.2C380.6,424.2,380.6,424.7,380.6,425
				L380.6,425z"/>
			<path class="st3" d="M392.8,424v6.4c0,1.6-0.8,3.2-3.2,3.2c-0.9,0-1.7-0.1-2.5-0.4l0.1-1.2c0.8,0.4,1.5,0.6,2.4,0.6
				c1.5,0,2.1-0.8,2.1-2.2c0-0.2,0-0.6,0-0.8h0c-0.4,0.7-1.1,1.2-2.2,1.2c-1.7,0-2.9-1.3-2.9-3.3c0-2.1,1.2-3.5,3-3.5
				c1,0,1.7,0.4,2.1,1.2h0c0-0.4,0-0.7,0-1H392.8z M387.8,427.3c0,1.4,0.7,2.3,1.8,2.3c1.1,0,1.9-1,1.9-2.4c0-1.4-0.8-2.4-1.9-2.4
				C388.6,424.8,387.8,425.9,387.8,427.3z"/>
			<path class="st3" d="M395.8,422.8h-1.4v-1.4h1.4V422.8z M395.7,430.6h-1.2V424h1.2V430.6z"/>
			<path class="st3" d="M398.6,425c0.5-0.8,1.2-1.2,2.2-1.2c1.9,0,2.5,1.2,2.5,3v3.8h-1.2v-3.3c0-1.3-0.1-2.5-1.5-2.5
				c-0.7,0-1.2,0.4-1.6,0.9c-0.2,0.4-0.3,0.9-0.3,1.6v3.2h-1.2v-4.7c0-0.7,0-1.4-0.1-2h1.2C398.6,424.2,398.6,424.7,398.6,425
				L398.6,425z"/>
			<path class="st3" d="M410.8,424v6.4c0,1.6-0.8,3.2-3.2,3.2c-0.9,0-1.7-0.1-2.5-0.4l0.1-1.2c0.8,0.4,1.5,0.6,2.4,0.6
				c1.5,0,2.1-0.8,2.1-2.2c0-0.2,0-0.6,0-0.8h0c-0.4,0.7-1.1,1.2-2.2,1.2c-1.7,0-2.9-1.3-2.9-3.3c0-2.1,1.2-3.5,3-3.5
				c1,0,1.7,0.4,2.1,1.2h0c0-0.4,0-0.7,0-1H410.8z M405.8,427.3c0,1.4,0.7,2.3,1.8,2.3c1.1,0,1.9-1,1.9-2.4c0-1.4-0.8-2.4-1.9-2.4
				C406.6,424.8,405.8,425.9,405.8,427.3z"/>
			<path class="st3" d="M415.4,430.6v-9.1h4.8v1.1h-3.5v2.9h3.4v1.1h-3.4v4H415.4z"/>
			<path class="st3" d="M422.7,422.8h-1.4v-1.4h1.4V422.8z M422.7,430.6h-1.2V424h1.2V430.6z"/>
			<path class="st3" d="M425.6,430.6h-1.2v-9.8h1.2V430.6z"/>
			<path class="st3" d="M428.1,427.6c0.1,1.3,1,2.1,2.3,2.1c0.8,0,1.3-0.2,1.9-0.5l0,1.1c-0.6,0.3-1.3,0.4-2.1,0.4
				c-2.2,0-3.5-1.3-3.5-3.5c0-2.1,1.3-3.4,3.2-3.4c1.7,0,2.8,1.1,2.8,3.3c0,0.1,0,0.3,0,0.5H428.1z M431.7,426.6
				c0-1.3-0.7-1.9-1.7-1.9s-1.7,0.7-1.8,1.9H431.7z"/>
		</g>
	</g>
	<g>
		<path class="st6" d="M459.2,470.3h-170c-2.6,0-4.6-2.1-4.6-4.6v-15.9c0-2.6,2.1-4.6,4.6-4.6h170c2.6,0,4.6,2.1,4.6,4.6v15.9
			C463.9,468.2,461.8,470.3,459.2,470.3z"/>
		<g>
			<path class="st3" d="M333.8,462.4h-1.5l-0.9-2.3H327l-0.9,2.3h-1.4l3.9-9.1h1.4L333.8,462.4z M329.8,456.1
				c-0.2-0.4-0.5-1.2-0.6-1.7h0c-0.1,0.5-0.4,1.2-0.6,1.7l-1.1,3h3.5L329.8,456.1z"/>
			<path class="st3" d="M338.8,457.1c-0.4-0.2-0.8-0.3-1.2-0.3c-1.3,0-2.2,0.9-2.2,2.3c0,1.4,0.9,2.4,2.2,2.4c0.5,0,0.9-0.1,1.4-0.3
				l0.1,1.1c-0.5,0.2-1,0.3-1.6,0.3c-2,0-3.4-1.4-3.4-3.4c0-2,1.4-3.4,3.5-3.4c0.5,0,1,0.1,1.4,0.2L338.8,457.1z"/>
			<path class="st3" d="M344.2,457.1c-0.4-0.2-0.8-0.3-1.2-0.3c-1.3,0-2.2,0.9-2.2,2.3c0,1.4,0.9,2.4,2.2,2.4c0.5,0,0.9-0.1,1.4-0.3
				l0.1,1.1c-0.5,0.2-1,0.3-1.6,0.3c-2,0-3.4-1.4-3.4-3.4c0-2,1.4-3.4,3.5-3.4c0.5,0,1,0.1,1.4,0.2L344.2,457.1z"/>
			<path class="st3" d="M346,459.4c0.1,1.3,1,2.1,2.3,2.1c0.8,0,1.3-0.2,1.9-0.5l0,1.1c-0.6,0.3-1.3,0.4-2.1,0.4
				c-2.2,0-3.5-1.3-3.5-3.5c0-2.1,1.3-3.4,3.2-3.4c1.7,0,2.8,1.1,2.8,3.3c0,0.1,0,0.3,0,0.5H346z M349.6,458.5
				c0-1.3-0.7-1.9-1.7-1.9c-1,0-1.7,0.7-1.8,1.9H349.6z"/>
			<path class="st3" d="M351.6,461.2c0.5,0.3,1.1,0.4,1.6,0.4c0.7,0,1.2-0.3,1.2-0.9c0-0.5-0.4-0.8-1.4-1.3c-1.1-0.5-1.5-1-1.5-1.8
				c0-1.2,1-1.9,2.3-1.9c0.6,0,1.1,0.1,1.5,0.3l-0.1,1c-0.5-0.2-0.9-0.3-1.4-0.3c-0.6,0-1.1,0.3-1.1,0.8c0,0.5,0.4,0.8,1.2,1.1
				c1.2,0.5,1.7,1.1,1.7,2c0,1.3-1,2-2.4,2c-0.7,0-1.2-0.1-1.8-0.3L351.6,461.2z"/>
			<path class="st3" d="M356.4,461.2c0.5,0.3,1.1,0.4,1.6,0.4c0.7,0,1.2-0.3,1.2-0.9c0-0.5-0.4-0.8-1.4-1.3c-1.1-0.5-1.5-1-1.5-1.8
				c0-1.2,1-1.9,2.3-1.9c0.6,0,1.1,0.1,1.5,0.3l-0.1,1c-0.5-0.2-0.9-0.3-1.4-0.3c-0.6,0-1.1,0.3-1.1,0.8c0,0.5,0.4,0.8,1.2,1.1
				c1.2,0.5,1.7,1.1,1.7,2c0,1.3-1,2-2.4,2c-0.7,0-1.2-0.1-1.8-0.3L356.4,461.2z"/>
			<path class="st3" d="M362.2,464.2h-1.1l0.8-3.2h1.4L362.2,464.2z"/>
			<path class="st3" d="M371.4,454.7c-0.6-0.3-1.2-0.4-1.7-0.4c-1,0-1.6,0.5-1.6,1.2c0,0.6,0.3,1,1.7,1.7c1.6,0.7,2.2,1.5,2.2,2.7
				c0,1.6-1.2,2.7-3.1,2.7c-0.8,0-1.5-0.1-2.1-0.4l0.1-1.2c0.7,0.4,1.3,0.5,1.9,0.5c1.1,0,1.8-0.6,1.8-1.5c0-0.8-0.4-1.2-1.8-1.8
				c-1.7-0.8-2.2-1.4-2.2-2.5c0-1.5,1.2-2.5,2.9-2.5c0.7,0,1.3,0.1,1.9,0.3L371.4,454.7z"/>
			<path class="st3" d="M374.6,454.6h-1.4v-1.4h1.4V454.6z M374.5,462.4h-1.2v-6.6h1.2V462.4z"/>
			<path class="st3" d="M377.4,456.9c0.5-0.8,1.2-1.2,2.2-1.2c1.9,0,2.5,1.2,2.5,3v3.8h-1.2v-3.3c0-1.3-0.1-2.5-1.5-2.5
				c-0.7,0-1.2,0.4-1.6,0.9c-0.2,0.4-0.3,0.9-0.3,1.6v3.2h-1.2v-4.7c0-0.7,0-1.4-0.1-2h1.2C377.4,456.1,377.4,456.5,377.4,456.9
				L377.4,456.9z"/>
			<path class="st3" d="M389.6,455.8v6.4c0,1.6-0.8,3.2-3.2,3.2c-0.9,0-1.7-0.1-2.5-0.4l0.1-1.2c0.8,0.4,1.5,0.6,2.4,0.6
				c1.5,0,2.1-0.8,2.1-2.2c0-0.2,0-0.6,0-0.8h0c-0.4,0.7-1.1,1.2-2.2,1.2c-1.7,0-2.9-1.3-2.9-3.3c0-2.1,1.2-3.5,3-3.5
				c1,0,1.7,0.4,2.1,1.2h0c0-0.4,0-0.7,0-1H389.6z M384.6,459.1c0,1.4,0.7,2.3,1.8,2.3c1.1,0,1.9-1,1.9-2.4c0-1.4-0.8-2.4-1.9-2.4
				C385.4,456.7,384.6,457.7,384.6,459.1z"/>
			<path class="st3" d="M392.5,462.4h-1.2v-9.8h1.2V462.4z"/>
			<path class="st3" d="M395,459.4c0.1,1.3,1,2.1,2.3,2.1c0.8,0,1.3-0.2,1.9-0.5l0,1.1c-0.6,0.3-1.3,0.4-2.1,0.4
				c-2.2,0-3.5-1.3-3.5-3.5c0-2.1,1.3-3.4,3.2-3.4c1.7,0,2.8,1.1,2.8,3.3c0,0.1,0,0.3,0,0.5H395z M398.6,458.5
				c0-1.3-0.7-1.9-1.7-1.9c-1,0-1.7,0.7-1.8,1.9H398.6z"/>
			<path class="st3" d="M408,454.7c-0.7-0.3-1.2-0.4-1.7-0.4c-1,0-1.6,0.5-1.6,1.2c0,0.6,0.3,1,1.7,1.7c1.6,0.7,2.2,1.5,2.2,2.7
				c0,1.6-1.2,2.7-3.1,2.7c-0.8,0-1.5-0.1-2.1-0.4l0.1-1.2c0.7,0.4,1.3,0.5,1.9,0.5c1.1,0,1.8-0.6,1.8-1.5c0-0.8-0.4-1.2-1.8-1.8
				c-1.7-0.8-2.2-1.4-2.2-2.5c0-1.5,1.2-2.5,2.9-2.5c0.7,0,1.3,0.1,1.9,0.3L408,454.7z"/>
			<path class="st3" d="M411.2,454.6h-1.4v-1.4h1.4V454.6z M411.1,462.4h-1.2v-6.6h1.2V462.4z"/>
			<path class="st3" d="M414.6,455.8h1.8v1h-1.8v2.9c0,1.1,0.1,1.8,1.1,1.8c0.3,0,0.5-0.1,0.7-0.2l0,1c-0.3,0.1-0.7,0.2-1.1,0.2
				c-1.7,0-2.1-1-2.1-2.4v-3.2h-1.5v-1h1.5v-1.6l1.2-0.4V455.8z"/>
			<path class="st3" d="M418.1,459.4c0.1,1.3,1,2.1,2.3,2.1c0.8,0,1.3-0.2,1.9-0.5l0,1.1c-0.6,0.3-1.3,0.4-2.1,0.4
				c-2.2,0-3.5-1.3-3.5-3.5c0-2.1,1.3-3.4,3.2-3.4c1.7,0,2.8,1.1,2.8,3.3c0,0.1,0,0.3,0,0.5H418.1z M421.7,458.5
				c0-1.3-0.7-1.9-1.7-1.9s-1.7,0.7-1.8,1.9H421.7z"/>
		</g>
	</g>
</g>
<g>
	<g>
		<g>
			<g>
				<line class="st7" x1="590.6" y1="301.4" x2="590.6" y2="175.7"/>
				<g>
					<circle class="st4" cx="590.6" cy="175.9" r="3.5"/>
				</g>
			</g>
			<g>
				<path class="st2" d="M611,313.2h-40.9c-2,0-3.6-1.6-3.6-3.6v-10c0-2,1.6-3.6,3.6-3.6H611c2,0,3.6,1.6,3.6,3.6v10
					C614.6,311.6,613,313.2,611,313.2z"/>
				<g>
					<path class="st3" d="M579.9,305c0,2.2-1.3,3.6-3.4,3.6c-2,0-3.4-1.4-3.4-3.6c0-2.3,1.3-3.6,3.5-3.6
						C578.6,301.4,579.9,302.8,579.9,305z M574.4,305c0,1.6,0.8,2.7,2.1,2.7c1.2,0,2.1-1.1,2.1-2.7c0-1.6-0.8-2.7-2.1-2.7
						C575.3,302.4,574.4,303.4,574.4,305z"/>
					<path class="st3" d="M581.1,301.5h2c1.6,0,2.6,0.5,2.6,1.8c0,0.8-0.5,1.4-1.5,1.6v0c1,0.1,1.6,0.7,1.6,1.7
						c0,1.4-1.3,1.9-2.7,1.9h-2V301.5z M582.3,304.5h0.5c1,0,1.7-0.1,1.7-1c0-0.8-0.7-1-1.6-1h-0.6V304.5z M582.3,307.6h0.6
						c1.2,0,1.7-0.3,1.7-1.1c0-0.8-0.6-1.1-1.9-1.1h-0.5V307.6z"/>
					<path class="st3" d="M586.5,307.4c0.2,0.1,0.5,0.1,0.7,0.1c0.7,0,1-0.3,1-1.3v-4.8h1.2v5c0,1.2-0.6,2.1-2,2.1
						c-0.3,0-0.6,0-0.9-0.1L586.5,307.4z"/>
					<path class="st3" d="M594.9,308.5h-4.1v-7h4v1h-2.8v1.9h2.6v1h-2.6v2.1h2.9V308.5z"/>
					<path class="st3" d="M600.9,302.8c-0.5-0.2-0.9-0.3-1.5-0.3c-1.5,0-2.5,1-2.5,2.5c0,1.6,1.1,2.6,2.5,2.6c0.5,0,1-0.1,1.5-0.3
						l0.1,1.1c-0.4,0.2-1,0.2-1.6,0.2c-2.2,0-3.8-1.3-3.8-3.6c0-2.1,1.6-3.5,3.7-3.5c0.6,0,1.1,0.1,1.6,0.3L600.9,302.8z"/>
					<path class="st3" d="M603.6,308.5v-6l-2,0v-1h5.3v1l-2,0v6H603.6z"/>
				</g>
			</g>
		</g>
		<g>
			<g>
				<line class="st7" x1="617.2" y1="327" x2="617.2" y2="189.4"/>
				<g>
					<circle class="st4" cx="617.2" cy="189.5" r="3.5"/>
				</g>
			</g>
			<g>
				<path class="st2" d="M637.7,336.7h-40.9c-2,0-3.6-1.6-3.6-3.6v-10c0-2,1.6-3.6,3.6-3.6h40.9c2,0,3.6,1.6,3.6,3.6v10
					C641.3,335.1,639.7,336.7,637.7,336.7z"/>
				<g>
					<path class="st3" d="M606.6,328.4c0,2.2-1.3,3.6-3.4,3.6c-2,0-3.4-1.4-3.4-3.6c0-2.3,1.3-3.6,3.5-3.6
						C605.3,324.9,606.6,326.3,606.6,328.4z M601.1,328.5c0,1.6,0.8,2.7,2.1,2.7c1.2,0,2.1-1.1,2.1-2.7c0-1.6-0.8-2.7-2.1-2.7
						C602,325.8,601.1,326.9,601.1,328.5z"/>
					<path class="st3" d="M607.8,325h2c1.6,0,2.6,0.5,2.6,1.8c0,0.8-0.5,1.4-1.5,1.6v0c1,0.1,1.6,0.7,1.6,1.7c0,1.4-1.3,1.9-2.7,1.9
						h-2V325z M609,328h0.5c1,0,1.7-0.1,1.7-1c0-0.8-0.7-1-1.6-1H609V328z M609,331h0.6c1.2,0,1.7-0.3,1.7-1.1
						c0-0.8-0.6-1.1-1.9-1.1H609V331z"/>
					<path class="st3" d="M613.2,330.9c0.2,0.1,0.5,0.1,0.7,0.1c0.7,0,1-0.3,1-1.3V325h1.2v5c0,1.2-0.6,2.1-2,2.1
						c-0.3,0-0.6,0-0.9-0.1L613.2,330.9z"/>
					<path class="st3" d="M621.6,332h-4.1v-7h4v1h-2.8v1.9h2.6v1h-2.6v2.1h2.9V332z"/>
					<path class="st3" d="M627.6,326.3c-0.5-0.2-0.9-0.3-1.5-0.3c-1.5,0-2.5,1-2.5,2.5c0,1.6,1.1,2.6,2.5,2.6c0.5,0,1-0.1,1.5-0.3
						l0.1,1.1c-0.4,0.2-1,0.2-1.6,0.2c-2.2,0-3.8-1.3-3.8-3.6c0-2.1,1.6-3.5,3.7-3.5c0.6,0,1.1,0.1,1.6,0.3L627.6,326.3z"/>
					<path class="st3" d="M630.3,332v-6l-2,0v-1h5.3v1l-2,0v6H630.3z"/>
				</g>
			</g>
		</g>
		<g>
			<g>
				<line class="st7" x1="569.1" y1="280" x2="569.1" y2="184"/>
				<g>
					<circle class="st4" cx="569.1" cy="184.2" r="3.5"/>
				</g>
			</g>
			<g>
				<path class="st2" d="M589.6,289.7h-40.9c-2,0-3.6-1.6-3.6-3.6v-10c0-2,1.6-3.6,3.6-3.6h40.9c2,0,3.6,1.6,3.6,3.6v10
					C593.2,288.1,591.6,289.7,589.6,289.7z"/>
				<g>
					<path class="st3" d="M558.5,281.5c0,2.2-1.3,3.6-3.4,3.6c-2,0-3.4-1.4-3.4-3.6c0-2.3,1.3-3.6,3.5-3.6
						C557.2,277.9,558.5,279.3,558.5,281.5z M553,281.5c0,1.6,0.8,2.7,2.1,2.7c1.2,0,2.1-1.1,2.1-2.7c0-1.6-0.8-2.7-2.1-2.7
						C553.8,278.9,553,279.9,553,281.5z"/>
					<path class="st3" d="M559.7,278h2c1.6,0,2.6,0.5,2.6,1.8c0,0.8-0.5,1.4-1.5,1.6v0c1,0.1,1.6,0.7,1.6,1.7c0,1.4-1.3,1.9-2.7,1.9
						h-2V278z M560.8,281h0.5c1,0,1.7-0.1,1.7-1c0-0.8-0.7-1-1.6-1h-0.6V281z M560.8,284.1h0.6c1.2,0,1.7-0.3,1.7-1.1
						c0-0.8-0.6-1.1-1.9-1.1h-0.5V284.1z"/>
					<path class="st3" d="M565,284c0.2,0.1,0.5,0.1,0.7,0.1c0.7,0,1-0.3,1-1.3V278h1.2v5c0,1.2-0.6,2.1-2,2.1
						c-0.3,0-0.6-0.1-0.9-0.1L565,284z"/>
					<path class="st3" d="M573.5,285h-4.1v-7h4v1h-2.8v1.9h2.6v1h-2.6v2.1h2.9V285z"/>
					<path class="st3" d="M579.4,279.3c-0.5-0.2-0.9-0.3-1.5-0.3c-1.5,0-2.5,1-2.5,2.5c0,1.6,1.1,2.6,2.5,2.6c0.5,0,1-0.1,1.5-0.3
						l0.1,1.1c-0.4,0.2-1,0.2-1.6,0.2c-2.2,0-3.8-1.3-3.8-3.6c0-2.1,1.6-3.5,3.7-3.5c0.6,0,1.1,0.1,1.6,0.3L579.4,279.3z"/>
					<path class="st3" d="M582.1,285v-6l-2,0v-1h5.3v1l-2,0v6H582.1z"/>
				</g>
			</g>
		</g>
		<g>
			<g>
				<line class="st7" x1="628.7" y1="279.3" x2="628.7" y2="180.8"/>
				<g>
					<circle class="st4" cx="628.7" cy="181" r="3.5"/>
				</g>
			</g>
			<g>
				<path class="st2" d="M649.2,289h-40.9c-2,0-3.6-1.6-3.6-3.6v-10c0-2,1.6-3.6,3.6-3.6h40.9c2,0,3.6,1.6,3.6,3.6v10
					C652.8,287.4,651.2,289,649.2,289z"/>
				<g>
					<path class="st3" d="M618.1,280.8c0,2.2-1.3,3.6-3.4,3.6c-2,0-3.4-1.4-3.4-3.6c0-2.3,1.3-3.6,3.5-3.6
						C616.8,277.2,618.1,278.6,618.1,280.8z M612.6,280.8c0,1.6,0.8,2.7,2.1,2.7c1.2,0,2.1-1.1,2.1-2.7c0-1.6-0.8-2.7-2.1-2.7
						C613.4,278.1,612.6,279.2,612.6,280.8z"/>
					<path class="st3" d="M619.3,277.3h2c1.6,0,2.6,0.5,2.6,1.8c0,0.8-0.5,1.4-1.5,1.6v0c1,0.1,1.6,0.7,1.6,1.7
						c0,1.4-1.3,1.9-2.7,1.9h-2V277.3z M620.4,280.3h0.5c1,0,1.7-0.1,1.7-1c0-0.8-0.7-1-1.6-1h-0.6V280.3z M620.4,283.4h0.6
						c1.2,0,1.7-0.3,1.7-1.1c0-0.8-0.6-1.1-1.9-1.1h-0.5V283.4z"/>
					<path class="st3" d="M624.6,283.2c0.2,0.1,0.5,0.1,0.7,0.1c0.7,0,1-0.3,1-1.3v-4.8h1.2v5c0,1.2-0.6,2.1-2,2.1
						c-0.3,0-0.6-0.1-0.9-0.1L624.6,283.2z"/>
					<path class="st3" d="M633.1,284.3H629v-7h4v1h-2.8v1.9h2.6v1h-2.6v2.1h2.9V284.3z"/>
					<path class="st3" d="M639,278.6c-0.5-0.2-0.9-0.3-1.5-0.3c-1.5,0-2.5,1-2.5,2.5c0,1.6,1.1,2.6,2.5,2.6c0.5,0,1-0.1,1.5-0.3
						l0.1,1.1c-0.4,0.2-1,0.2-1.6,0.2c-2.2,0-3.8-1.3-3.8-3.6c0-2.1,1.6-3.5,3.7-3.5c0.6,0,1.1,0.1,1.6,0.3L639,278.6z"/>
					<path class="st3" d="M641.7,284.3v-6l-2,0v-1h5.3v1l-2,0v6H641.7z"/>
				</g>
			</g>
		</g>
		<g>
			<g>
				<line class="st7" x1="559" y1="233.1" x2="559" y2="202.1"/>
				<g>
					<circle class="st4" cx="559" cy="202.3" r="3.5"/>
				</g>
			</g>
			<g>
				<path class="st2" d="M579.4,242.7h-40.9c-2,0-3.6-1.6-3.6-3.6v-10c0-2,1.6-3.6,3.6-3.6h40.9c2,0,3.6,1.6,3.6,3.6v10
					C583,241.1,581.4,242.7,579.4,242.7z"/>
				<g>
					<path class="st3" d="M548.3,234.5c0,2.2-1.3,3.6-3.4,3.6c-2,0-3.4-1.4-3.4-3.6c0-2.3,1.3-3.6,3.5-3.6
						C547,230.9,548.3,232.3,548.3,234.5z M542.8,234.5c0,1.6,0.8,2.7,2.1,2.7c1.2,0,2.1-1.1,2.1-2.7c0-1.6-0.8-2.7-2.1-2.7
						C543.7,231.9,542.8,233,542.8,234.5z"/>
					<path class="st3" d="M549.5,231.1h2c1.6,0,2.6,0.5,2.6,1.8c0,0.8-0.5,1.4-1.5,1.6v0c1,0.1,1.6,0.7,1.6,1.7
						c0,1.4-1.3,1.9-2.7,1.9h-2V231.1z M550.7,234h0.5c1,0,1.7-0.1,1.7-1c0-0.8-0.7-1-1.6-1h-0.6V234z M550.7,237.1h0.6
						c1.2,0,1.7-0.3,1.7-1.1c0-0.8-0.6-1.1-1.9-1.1h-0.5V237.1z"/>
					<path class="st3" d="M554.9,237c0.2,0.1,0.5,0.1,0.7,0.1c0.7,0,1-0.3,1-1.3v-4.8h1.2v5c0,1.2-0.6,2.1-2,2.1
						c-0.3,0-0.6-0.1-0.9-0.1L554.9,237z"/>
					<path class="st3" d="M563.3,238h-4.1v-7h4v1h-2.8v1.9h2.6v1h-2.6v2.1h2.9V238z"/>
					<path class="st3" d="M569.3,232.3c-0.5-0.2-0.9-0.3-1.5-0.3c-1.5,0-2.5,1-2.5,2.5c0,1.6,1.1,2.6,2.5,2.6c0.5,0,1-0.1,1.5-0.3
						l0.1,1.1c-0.4,0.2-1,0.2-1.6,0.2c-2.2,0-3.8-1.3-3.8-3.6c0-2.1,1.6-3.5,3.7-3.5c0.6,0,1.1,0.1,1.6,0.3L569.3,232.3z"/>
					<path class="st3" d="M572,238v-6l-2,0v-1h5.3v1l-2,0v6H572z"/>
				</g>
			</g>
		</g>
		<g>
			<g>
				<line class="st7" x1="646.5" y1="233.1" x2="646.5" y2="202.1"/>
				<g>
					<circle class="st4" cx="646.5" cy="202.3" r="3.5"/>
				</g>
			</g>
			<g>
				<path class="st2" d="M667,242.7h-40.9c-2,0-3.6-1.6-3.6-3.6v-10c0-2,1.6-3.6,3.6-3.6H667c2,0,3.6,1.6,3.6,3.6v10
					C670.6,241.1,669,242.7,667,242.7z"/>
				<g>
					<path class="st3" d="M635.9,234.5c0,2.2-1.3,3.6-3.4,3.6c-2,0-3.4-1.4-3.4-3.6c0-2.3,1.3-3.6,3.5-3.6
						C634.6,230.9,635.9,232.3,635.9,234.5z M630.4,234.5c0,1.6,0.8,2.7,2.1,2.7c1.2,0,2.1-1.1,2.1-2.7c0-1.6-0.8-2.7-2.1-2.7
						C631.3,231.9,630.4,233,630.4,234.5z"/>
					<path class="st3" d="M637.1,231.1h2c1.6,0,2.6,0.5,2.6,1.8c0,0.8-0.5,1.4-1.5,1.6v0c1,0.1,1.6,0.7,1.6,1.7
						c0,1.4-1.3,1.9-2.7,1.9h-2V231.1z M638.3,234h0.5c1,0,1.7-0.1,1.7-1c0-0.8-0.7-1-1.6-1h-0.6V234z M638.3,237.1h0.6
						c1.2,0,1.7-0.3,1.7-1.1c0-0.8-0.6-1.1-1.9-1.1h-0.5V237.1z"/>
					<path class="st3" d="M642.5,237c0.2,0.1,0.5,0.1,0.7,0.1c0.7,0,1-0.3,1-1.3v-4.8h1.2v5c0,1.2-0.6,2.1-2,2.1
						c-0.3,0-0.6-0.1-0.9-0.1L642.5,237z"/>
					<path class="st3" d="M650.9,238h-4.1v-7h4v1H648v1.9h2.6v1H648v2.1h2.9V238z"/>
					<path class="st3" d="M656.9,232.3c-0.5-0.2-0.9-0.3-1.5-0.3c-1.5,0-2.5,1-2.5,2.5c0,1.6,1.1,2.6,2.5,2.6c0.5,0,1-0.1,1.5-0.3
						l0.1,1.1c-0.4,0.2-1,0.2-1.6,0.2c-2.2,0-3.8-1.3-3.8-3.6c0-2.1,1.6-3.5,3.7-3.5c0.6,0,1.1,0.1,1.6,0.3L656.9,232.3z"/>
					<path class="st3" d="M659.6,238v-6l-2,0v-1h5.3v1l-2,0v6H659.6z"/>
				</g>
			</g>
		</g>
		<g>
			<g>
				<line class="st7" x1="602.8" y1="256.8" x2="602.8" y2="176"/>
				<g>
					<circle class="st4" cx="602.8" cy="176.2" r="3.5"/>
				</g>
			</g>
			<g>
				<path class="st2" d="M623.2,266.5h-40.9c-2,0-3.6-1.6-3.6-3.6v-10c0-2,1.6-3.6,3.6-3.6h40.9c2,0,3.6,1.6,3.6,3.6v10
					C626.9,264.8,625.2,266.5,623.2,266.5z"/>
				<g>
					<path class="st3" d="M592.1,258.2c0,2.2-1.3,3.6-3.4,3.6c-2,0-3.4-1.4-3.4-3.6c0-2.3,1.3-3.6,3.5-3.6
						C590.8,254.6,592.1,256,592.1,258.2z M586.7,258.3c0,1.6,0.8,2.7,2.1,2.7c1.2,0,2.1-1.1,2.1-2.7c0-1.6-0.8-2.7-2.1-2.7
						C587.5,255.6,586.7,256.7,586.7,258.3z"/>
					<path class="st3" d="M593.4,254.8h2c1.6,0,2.6,0.5,2.6,1.8c0,0.8-0.5,1.4-1.5,1.6v0c1,0.1,1.6,0.7,1.6,1.7
						c0,1.4-1.3,1.9-2.7,1.9h-2V254.8z M594.5,257.7h0.5c1,0,1.7-0.1,1.7-1c0-0.8-0.7-1-1.6-1h-0.6V257.7z M594.5,260.8h0.6
						c1.2,0,1.7-0.3,1.7-1.1c0-0.8-0.6-1.1-1.9-1.1h-0.5V260.8z"/>
					<path class="st3" d="M598.7,260.7c0.2,0.1,0.5,0.1,0.7,0.1c0.7,0,1-0.3,1-1.3v-4.8h1.2v5c0,1.2-0.6,2.1-2,2.1
						c-0.3,0-0.6-0.1-0.9-0.1L598.7,260.7z"/>
					<path class="st3" d="M607.2,261.7h-4.1v-7h4v1h-2.8v1.9h2.6v1h-2.6v2.1h2.9V261.7z"/>
					<path class="st3" d="M613.1,256c-0.5-0.2-0.9-0.3-1.5-0.3c-1.5,0-2.5,1-2.5,2.5c0,1.6,1.1,2.6,2.5,2.6c0.5,0,1-0.1,1.5-0.3
						l0.1,1.1c-0.4,0.2-1,0.2-1.6,0.2c-2.2,0-3.8-1.3-3.8-3.6c0-2.1,1.6-3.5,3.7-3.5c0.6,0,1.1,0.1,1.6,0.3L613.1,256z"/>
					<path class="st3" d="M615.8,261.7v-6l-2,0v-1h5.3v1l-2,0v6H615.8z"/>
				</g>
			</g>
		</g>
	</g>
	<g>
		<path class="st5" d="M585.8,143.3c0,5.4-3.1,8.7-8.1,8.7c-4.9,0-8.1-3.4-8.1-8.6c0-5.3,3.2-8.6,8.3-8.6
			C582.7,134.8,585.8,138.2,585.8,143.3z M572.3,143.4c0,4.1,2.2,6.7,5.5,6.7c3.2,0,5.5-2.7,5.5-6.7c0-4.1-2.1-6.7-5.5-6.7
			C574.5,136.7,572.3,139.4,572.3,143.4z"/>
		<path class="st5" d="M590.3,149.6c0,0.8,0,1.6-0.1,2.1h-2c0.1-1,0.1-2.4,0.1-3.7v-14.4h2.2v4.7c0,1.2,0,2.4-0.1,3.1h0
			c0.9-1.4,2.4-2.2,4.1-2.2c3.1,0,5.2,2.7,5.2,6.2c0,3.7-2.1,6.5-5.4,6.5C592.6,152,591.2,151,590.3,149.6L590.3,149.6z
			 M590.6,145.7c0,2.5,1.5,4.4,3.5,4.4c2.1,0,3.4-2,3.4-4.5c0-2.6-1.2-4.5-3.4-4.5C592.1,141.2,590.6,143.2,590.6,145.7z"/>
		<path class="st5" d="M604.4,152.4c0,2.9-1.1,4.6-3.8,4.6c-0.3,0-0.7,0-1-0.1V155c0.3,0,0.5,0,0.6,0c1.4,0,1.9-0.8,1.9-2.9v-12.6
			h2.3V152.4z M604.5,137.4H602v-2.5h2.5V137.4z"/>
		<path class="st5" d="M608.9,146.2c0.1,2.5,1.8,3.9,4.2,3.9c1.4,0,2.5-0.3,3.6-0.9l0.1,2.1c-1.1,0.5-2.3,0.7-3.8,0.7
			c-4.1,0-6.4-2.5-6.4-6.5c0-3.8,2.3-6.3,5.8-6.3c3.2,0,5.2,1.9,5.2,6c0,0.2,0,0.6,0,0.9H608.9z M615.4,144.5c0-2.3-1.3-3.5-3.1-3.5
			c-1.8,0-3.2,1.3-3.4,3.5H615.4z"/>
		<path class="st5" d="M627.8,141.9c-0.7-0.4-1.4-0.5-2.3-0.5c-2.4,0-4.1,1.7-4.1,4.2c0,2.6,1.6,4.4,4.1,4.4c0.9,0,1.6-0.1,2.5-0.6
			l0.2,2c-0.9,0.4-1.9,0.5-3,0.5c-3.7,0-6.2-2.5-6.2-6.2c0-3.6,2.5-6.2,6.3-6.2c0.9,0,1.8,0.1,2.6,0.5L627.8,141.9z"/>
		<path class="st5" d="M633.7,139.6h3.3v1.8h-3.3v5.3c0,1.9,0.3,3.3,2.1,3.3c0.5,0,0.9-0.1,1.3-0.3l0.1,1.8
			c-0.5,0.2-1.2,0.3-1.9,0.3c-3.1,0-3.8-1.9-3.8-4.5v-6h-2.8v-1.8h2.8v-2.9l2.2-0.8V139.6z"/>
	</g>
	<g>
		<path class="st4" d="M687.7,375.8h-170c-2.6,0-4.6-2.1-4.6-4.6v-15.9c0-2.6,2.1-4.6,4.6-4.6h170c2.6,0,4.6,2.1,4.6,4.6v15.9
			C692.4,373.7,690.3,375.8,687.7,375.8z"/>
		<g>
			<path class="st3" d="M574.8,360c-0.5-0.3-1.2-0.5-1.9-0.5c-2,0-3.4,1.4-3.4,3.5c0,2.1,1.5,3.5,3.5,3.5c0.6,0,1.2-0.1,1.9-0.4
				l0.1,1.2c-0.5,0.2-1.3,0.3-2,0.3c-2.9,0-4.9-1.7-4.9-4.7c0-2.7,2.1-4.6,4.8-4.6c0.7,0,1.4,0.1,2,0.4L574.8,360z"/>
			<path class="st3" d="M577.2,367.6H576v-9.8h1.2V367.6z"/>
			<path class="st3" d="M580.2,359.8h-1.4v-1.4h1.4V359.8z M580.2,367.6h-1.2V361h1.2V367.6z"/>
			<path class="st3" d="M582.7,364.6c0.1,1.3,1,2.1,2.3,2.1c0.8,0,1.3-0.2,1.9-0.5l0,1.1c-0.6,0.3-1.3,0.4-2.1,0.4
				c-2.2,0-3.5-1.3-3.5-3.5c0-2.1,1.3-3.4,3.2-3.4c1.7,0,2.8,1.1,2.8,3.3c0,0.1,0,0.3,0,0.5H582.7z M586.2,363.7
				c0-1.3-0.7-1.9-1.7-1.9c-1,0-1.7,0.7-1.8,1.9H586.2z"/>
			<path class="st3" d="M589.9,362.1c0.5-0.8,1.2-1.2,2.2-1.2c1.9,0,2.5,1.2,2.5,3v3.8h-1.2v-3.3c0-1.3-0.1-2.5-1.5-2.5
				c-0.7,0-1.2,0.4-1.6,0.9c-0.2,0.4-0.3,0.9-0.3,1.6v3.2h-1.2V363c0-0.7,0-1.4-0.1-2h1.2C589.8,361.3,589.8,361.7,589.9,362.1
				L589.9,362.1z"/>
			<path class="st3" d="M597.9,361h1.8v1h-1.8v2.9c0,1.1,0.1,1.8,1.1,1.8c0.3,0,0.5-0.1,0.7-0.2l0,1c-0.3,0.1-0.7,0.2-1.1,0.2
				c-1.7,0-2.1-1-2.1-2.4V362h-1.5v-1h1.5v-1.6l1.2-0.4V361z"/>
			<path class="st3" d="M604.9,359.8h-1.4v-1.4h1.4V359.8z M604.8,367.6h-1.2V361h1.2V367.6z"/>
			<path class="st3" d="M606.1,366.3c0.5,0.3,1.1,0.4,1.6,0.4c0.7,0,1.2-0.3,1.2-0.9c0-0.5-0.4-0.8-1.4-1.3c-1.1-0.5-1.5-1-1.5-1.8
				c0-1.2,1-1.9,2.3-1.9c0.6,0,1.1,0.1,1.5,0.3l-0.1,1c-0.5-0.2-0.9-0.3-1.4-0.3c-0.6,0-1.1,0.3-1.1,0.8c0,0.5,0.4,0.8,1.2,1.1
				c1.2,0.5,1.7,1.1,1.7,2c0,1.3-1,2-2.4,2c-0.7,0-1.2-0.1-1.8-0.3L606.1,366.3z"/>
			<path class="st3" d="M622.3,367.6h-1.5l-0.9-2.3h-4.4l-0.9,2.3h-1.4l3.9-9.1h1.4L622.3,367.6z M618.3,361.3
				c-0.2-0.4-0.5-1.2-0.6-1.7h0c-0.1,0.5-0.4,1.2-0.6,1.7l-1.1,3h3.5L618.3,361.3z"/>
			<path class="st3" d="M623.2,363c0-0.7,0-1.4-0.1-2h1.2c0,0.3,0.1,0.7,0.1,1.1h0c0.5-0.8,1.3-1.2,2.3-1.2c1.7,0,2.8,1.4,2.8,3.4
				c0,2.1-1.2,3.6-2.9,3.6c-1,0-1.8-0.5-2.2-1.3h0c0,0.3,0,1.2,0,1.6v2.2h-1.2V363z M624.4,364.3c0,1.3,0.9,2.4,2,2.4
				c1.1,0,1.9-1.1,1.9-2.4c0-1.5-0.7-2.5-1.9-2.5C625.2,361.9,624.4,362.9,624.4,364.3z"/>
			<path class="st3" d="M630.7,363c0-0.7,0-1.4-0.1-2h1.2c0,0.3,0.1,0.7,0.1,1.1h0c0.5-0.8,1.3-1.2,2.3-1.2c1.7,0,2.8,1.4,2.8,3.4
				c0,2.1-1.2,3.6-2.9,3.6c-1,0-1.8-0.5-2.2-1.3h0c0,0.3,0,1.2,0,1.6v2.2h-1.2V363z M632,364.3c0,1.3,0.9,2.4,2,2.4
				c1.1,0,1.9-1.1,1.9-2.4c0-1.5-0.7-2.5-1.9-2.5C632.8,361.9,632,362.9,632,364.3z"/>
		</g>
	</g>
	<g>
		<path class="st4" d="M687.7,407.3h-170c-2.6,0-4.6-2.1-4.6-4.6v-15.9c0-2.6,2.1-4.6,4.6-4.6h170c2.6,0,4.6,2.1,4.6,4.6v15.9
			C692.4,405.2,690.3,407.3,687.7,407.3z"/>
		<g>
			<path class="st3" d="M558.7,391.9c-0.5-0.3-1.2-0.5-1.9-0.5c-2,0-3.4,1.4-3.4,3.5c0,2.1,1.5,3.5,3.5,3.5c0.6,0,1.2-0.1,1.9-0.4
				l0.1,1.2c-0.5,0.2-1.3,0.3-2,0.3c-2.9,0-4.9-1.7-4.9-4.7c0-2.7,2.1-4.6,4.8-4.6c0.7,0,1.4,0.1,2,0.4L558.7,391.9z"/>
			<path class="st3" d="M564.4,398.4c-0.4,0.6-1,1.2-2.3,1.2c-1.5,0-2.4-1-2.4-2.7v-4.1h1.2v3.3c0,1.4,0.1,2.5,1.5,2.5
				c1.2,0,1.9-1.1,1.9-2.3v-3.4h1.2v4.6c0,0.7,0,1.4,0.1,2h-1.2C564.5,399.2,564.4,398.9,564.4,398.4L564.4,398.4z"/>
			<path class="st3" d="M566.9,398.2c0.5,0.3,1.1,0.4,1.6,0.4c0.7,0,1.2-0.3,1.2-0.9c0-0.5-0.4-0.8-1.4-1.3c-1.1-0.5-1.5-1-1.5-1.8
				c0-1.2,1-1.9,2.3-1.9c0.6,0,1.1,0.1,1.5,0.3l-0.1,1c-0.5-0.2-0.9-0.3-1.4-0.3c-0.6,0-1.1,0.3-1.1,0.8c0,0.5,0.4,0.8,1.2,1.1
				c1.2,0.5,1.7,1.1,1.7,2c0,1.3-1,2-2.4,2c-0.7,0-1.2-0.1-1.8-0.3L566.9,398.2z"/>
			<path class="st3" d="M574,392.9h1.8v1H574v2.9c0,1.1,0.1,1.8,1.1,1.8c0.3,0,0.5-0.1,0.7-0.2l0,1c-0.3,0.1-0.7,0.2-1.1,0.2
				c-1.7,0-2.1-1-2.1-2.4v-3.2h-1.5v-1h1.5v-1.6l1.2-0.4V392.9z"/>
			<path class="st3" d="M583.1,396.2c0,2-1.4,3.4-3.4,3.4c-2,0-3.4-1.4-3.4-3.4c0-2.1,1.4-3.5,3.4-3.5
				C581.7,392.7,583.1,394.1,583.1,396.2z M577.6,396.2c0,1.5,0.9,2.4,2.1,2.4c1.2,0,2.1-1,2.1-2.4c0-1.5-0.9-2.5-2.1-2.5
				C578.5,393.7,577.6,394.7,577.6,396.2z"/>
			<path class="st3" d="M585.5,393.9c0.4-0.7,1.1-1.2,2.1-1.2c1,0,1.6,0.5,1.9,1.4c0.5-0.9,1.2-1.4,2.2-1.4c1.4,0,2.2,0.9,2.2,2.7
				v4.1h-1.2v-4.1c0-1.1-0.4-1.7-1.2-1.7c-0.6,0-1.1,0.3-1.4,0.9c-0.2,0.4-0.3,0.9-0.3,1.7v3.2h-1.2v-3.9c0-1.4-0.3-1.9-1.2-1.9
				c-0.6,0-1.2,0.4-1.5,1c-0.2,0.4-0.3,0.9-0.3,1.6v3.1h-1.2v-4.7c0-0.7,0-1.4-0.1-2h1.2C585.4,393.1,585.5,393.6,585.5,393.9
				L585.5,393.9z"/>
			<path class="st3" d="M602.8,396.2c0.2,0.4,0.5,1.4,0.6,1.9h0c0.2-0.6,0.5-1.5,0.7-1.9l2.1-5.8h2.1v9.1h-1.3v-6c0-0.4,0-1.5,0-2.1
				h0c-0.2,0.6-0.5,1.4-0.6,1.8l-2.4,6.4h-1.3l-2.4-6.2c-0.2-0.4-0.5-1.4-0.7-1.9h0c0,0.7,0,1.7,0,2.1v6h-1.2v-9.1h2.1L602.8,396.2z
				"/>
			<path class="st3" d="M611.1,396.5c0.1,1.3,1,2.1,2.3,2.1c0.8,0,1.3-0.2,1.9-0.5l0,1.1c-0.6,0.3-1.3,0.4-2.1,0.4
				c-2.2,0-3.5-1.3-3.5-3.5c0-2.1,1.3-3.4,3.2-3.4c1.7,0,2.8,1.1,2.8,3.3c0,0.1,0,0.3,0,0.5H611.1z M614.6,395.5
				c0-1.3-0.7-1.9-1.7-1.9c-1,0-1.7,0.7-1.8,1.9H614.6z"/>
			<path class="st3" d="M618.9,392.9h1.8v1h-1.8v2.9c0,1.1,0.1,1.8,1.1,1.8c0.3,0,0.5-0.1,0.7-0.2l0,1c-0.3,0.1-0.7,0.2-1.1,0.2
				c-1.7,0-2.1-1-2.1-2.4v-3.2h-1.5v-1h1.5v-1.6l1.2-0.4V392.9z"/>
			<path class="st3" d="M622.1,393.2c0.6-0.4,1.4-0.6,2.2-0.6c1.9,0,2.7,1.1,2.7,2.6c0,0.8,0,1.9,0,2.2c0,0.7,0,1.5,0.1,2h-1.1
				c0-0.1,0-0.4,0-0.5c0-0.2,0-0.4,0-0.6h0c-0.5,0.8-1.2,1.2-2.2,1.2c-1.4,0-2.3-0.8-2.3-2c0-1.4,1.2-2.2,3.5-2.2c0.3,0,0.6,0,0.9,0
				v-0.1c0-1.1-0.6-1.7-1.7-1.7c-0.7,0-1.4,0.3-1.9,0.6L622.1,393.2z M625.1,396.3c-1.6,0-2.4,0.4-2.4,1.3c0,0.7,0.5,1,1.3,1
				c0.7,0,1.4-0.4,1.7-1c0.1-0.3,0.2-0.7,0.2-1.3C625.7,396.3,625.4,396.3,625.1,396.3z"/>
			<path class="st3" d="M634.5,397.5c0,0.7,0,1.4,0.1,2h-1.1c0-0.4,0-0.7,0-1.1h0c-0.5,0.8-1.2,1.3-2.2,1.3c-1.8,0-2.9-1.4-2.9-3.4
				c0-2.1,1.2-3.5,2.9-3.5c1,0,1.8,0.4,2.2,1.2h0c0-0.4,0-1,0-1.7v-2.5h1.2V397.5z M629.5,396.2c0,1.4,0.8,2.4,1.9,2.4
				c1.1,0,1.9-1.1,1.9-2.4c0-1.4-0.8-2.5-1.9-2.5C630.3,393.7,629.5,394.8,629.5,396.2z"/>
			<path class="st3" d="M636.4,393.2c0.6-0.4,1.4-0.6,2.2-0.6c1.9,0,2.7,1.1,2.7,2.6c0,0.8,0,1.9,0,2.2c0,0.7,0,1.5,0.1,2h-1.1
				c0-0.1,0-0.4,0-0.5c0-0.2,0-0.4,0-0.6h0c-0.5,0.8-1.2,1.2-2.2,1.2c-1.4,0-2.3-0.8-2.3-2c0-1.4,1.2-2.2,3.5-2.2c0.3,0,0.6,0,0.9,0
				v-0.1c0-1.1-0.6-1.7-1.7-1.7c-0.7,0-1.4,0.3-1.9,0.6L636.4,393.2z M639.4,396.3c-1.6,0-2.4,0.4-2.4,1.3c0,0.7,0.5,1,1.3,1
				c0.7,0,1.4-0.4,1.7-1c0.1-0.3,0.2-0.7,0.2-1.3C639.9,396.3,639.7,396.3,639.4,396.3z"/>
			<path class="st3" d="M644.6,392.9h1.8v1h-1.8v2.9c0,1.1,0.1,1.8,1.1,1.8c0.3,0,0.5-0.1,0.7-0.2l0,1c-0.3,0.1-0.7,0.2-1.1,0.2
				c-1.7,0-2.1-1-2.1-2.4v-3.2h-1.5v-1h1.5v-1.6l1.2-0.4V392.9z"/>
			<path class="st3" d="M647.8,393.2c0.6-0.4,1.4-0.6,2.2-0.6c1.9,0,2.7,1.1,2.7,2.6c0,0.8,0,1.9,0,2.2c0,0.7,0,1.5,0.1,2h-1.1
				c0-0.1,0-0.4,0-0.5c0-0.2,0-0.4,0-0.6h0c-0.5,0.8-1.2,1.2-2.2,1.2c-1.4,0-2.3-0.8-2.3-2c0-1.4,1.2-2.2,3.5-2.2c0.3,0,0.6,0,0.9,0
				v-0.1c0-1.1-0.6-1.7-1.7-1.7c-0.7,0-1.4,0.3-1.9,0.6L647.8,393.2z M650.8,396.3c-1.6,0-2.4,0.4-2.4,1.3c0,0.7,0.5,1,1.3,1
				c0.7,0,1.4-0.4,1.7-1c0.1-0.3,0.2-0.7,0.2-1.3C651.4,396.3,651.1,396.3,650.8,396.3z"/>
		</g>
	</g>
	<g>
		<path class="st4" d="M687.7,438.8h-170c-2.6,0-4.6-2.1-4.6-4.6v-15.9c0-2.6,2.1-4.6,4.6-4.6h170c2.6,0,4.6,2.1,4.6,4.6v15.9
			C692.4,436.7,690.3,438.8,687.7,438.8z"/>
		<g>
			<path class="st3" d="M545,422.8c-0.6-0.3-1.2-0.4-1.7-0.4c-1,0-1.6,0.5-1.6,1.2c0,0.6,0.3,1,1.7,1.7c1.6,0.7,2.2,1.5,2.2,2.7
				c0,1.6-1.2,2.7-3.1,2.7c-0.8,0-1.5-0.1-2.1-0.4l0.1-1.2c0.7,0.4,1.3,0.5,1.9,0.5c1.1,0,1.8-0.6,1.8-1.5c0-0.8-0.4-1.2-1.8-1.8
				c-1.7-0.8-2.2-1.4-2.2-2.5c0-1.5,1.2-2.5,2.9-2.5c0.7,0,1.3,0.1,1.9,0.3L545,422.8z"/>
			<path class="st3" d="M548.2,423.3c0,0.7,0,1.4,0,1.7h0c0.5-0.7,1.2-1.2,2.2-1.2c1.9,0,2.5,1.2,2.5,3v3.8h-1.2v-3.3
				c0-1.3-0.1-2.5-1.5-2.5c-0.7,0-1.2,0.4-1.6,0.9c-0.2,0.4-0.3,0.9-0.3,1.6v3.2h-1.2v-9.8h1.2V423.3z"/>
			<path class="st3" d="M554.7,424.4c0.6-0.4,1.4-0.6,2.2-0.6c1.9,0,2.7,1.1,2.7,2.6c0,0.8,0,1.9,0,2.2c0,0.7,0,1.5,0.1,2h-1.1
				c0-0.1,0-0.4,0-0.5c0-0.2,0-0.4,0-0.6h0c-0.5,0.8-1.2,1.2-2.2,1.2c-1.4,0-2.3-0.8-2.3-2c0-1.4,1.2-2.2,3.5-2.2c0.3,0,0.6,0,0.9,0
				v-0.1c0-1.1-0.6-1.7-1.7-1.7c-0.7,0-1.4,0.3-1.9,0.6L554.7,424.4z M557.7,427.4c-1.6,0-2.4,0.4-2.4,1.3c0,0.7,0.5,1,1.3,1
				c0.7,0,1.4-0.4,1.7-1c0.1-0.3,0.2-0.7,0.2-1.3C558.2,427.4,558,427.4,557.7,427.4z"/>
			<path class="st3" d="M562.4,425.1c0.4-0.8,1-1.3,1.9-1.3c0.3,0,0.5,0,0.6,0.1v1.2c-0.2-0.1-0.4-0.1-0.7-0.1
				c-1.1,0-1.8,0.9-1.8,2.6v3h-1.2v-4.7c0-0.7,0-1.4-0.1-2h1.2C562.3,424.3,562.3,424.7,562.4,425.1L562.4,425.1z"/>
			<path class="st3" d="M566.5,427.6c0.1,1.3,1,2.1,2.3,2.1c0.8,0,1.3-0.2,1.9-0.5l0,1.1c-0.6,0.3-1.3,0.4-2.1,0.4
				c-2.2,0-3.5-1.3-3.5-3.5c0-2.1,1.3-3.4,3.2-3.4c1.7,0,2.8,1.1,2.8,3.3c0,0.1,0,0.3,0,0.5H566.5z M570,426.6
				c0-1.3-0.7-1.9-1.7-1.9c-1,0-1.7,0.7-1.8,1.9H570z"/>
			<path class="st3" d="M578.4,428.6c0,0.7,0,1.4,0.1,2h-1.1c0-0.4,0-0.7,0-1.1h0c-0.5,0.8-1.2,1.3-2.2,1.3c-1.8,0-2.9-1.4-2.9-3.4
				c0-2.1,1.2-3.5,2.9-3.5c1,0,1.8,0.4,2.2,1.2h0c0-0.4,0-1,0-1.7v-2.5h1.2V428.6z M573.4,427.3c0,1.4,0.8,2.4,1.9,2.4
				c1.1,0,1.9-1.1,1.9-2.4c0-1.4-0.8-2.5-1.9-2.5C574.2,424.8,573.4,425.9,573.4,427.3z"/>
			<path class="st3" d="M587.1,422.8c-0.6-0.3-1.2-0.4-1.7-0.4c-1,0-1.6,0.5-1.6,1.2c0,0.6,0.3,1,1.7,1.7c1.6,0.7,2.2,1.5,2.2,2.7
				c0,1.6-1.2,2.7-3.1,2.7c-0.8,0-1.5-0.1-2.1-0.4l0.1-1.2c0.7,0.4,1.3,0.5,1.9,0.5c1.1,0,1.8-0.6,1.8-1.5c0-0.8-0.4-1.2-1.8-1.8
				c-1.7-0.8-2.2-1.4-2.2-2.5c0-1.5,1.2-2.5,2.9-2.5c0.7,0,1.3,0.1,1.9,0.3L587.1,422.8z"/>
			<path class="st3" d="M589.8,427.6c0.1,1.3,1,2.1,2.3,2.1c0.8,0,1.3-0.2,1.9-0.5l0,1.1c-0.6,0.3-1.3,0.4-2.1,0.4
				c-2.2,0-3.5-1.3-3.5-3.5c0-2.1,1.3-3.4,3.2-3.4c1.7,0,2.8,1.1,2.8,3.3c0,0.1,0,0.3,0,0.5H589.8z M593.3,426.6
				c0-1.3-0.7-1.9-1.7-1.9c-1,0-1.7,0.7-1.8,1.9H593.3z"/>
			<path class="st3" d="M597,425c0.4-0.7,1.1-1.2,2.1-1.2c1,0,1.6,0.5,1.9,1.4c0.5-0.9,1.2-1.4,2.2-1.4c1.4,0,2.2,0.9,2.2,2.7v4.1
				h-1.2v-4.1c0-1.1-0.4-1.7-1.2-1.7c-0.6,0-1.1,0.3-1.4,0.9c-0.2,0.4-0.3,0.9-0.3,1.7v3.2H600v-3.9c0-1.4-0.3-1.9-1.2-1.9
				c-0.6,0-1.2,0.4-1.5,1c-0.2,0.4-0.3,0.9-0.3,1.6v3.1h-1.2v-4.7c0-0.7,0-1.4-0.1-2h1.2C596.9,424.2,597,424.7,597,425L597,425z"/>
			<path class="st3" d="M608.3,422.8h-1.4v-1.4h1.4V422.8z M608.3,430.6H607V424h1.2V430.6z"/>
			<path class="st3" d="M613,427.7h-3.4v-1h3.4V427.7z"/>
			<path class="st3" d="M618.3,422.8c-0.7-0.3-1.2-0.4-1.7-0.4c-1,0-1.6,0.5-1.6,1.2c0,0.6,0.3,1,1.7,1.7c1.6,0.7,2.2,1.5,2.2,2.7
				c0,1.6-1.2,2.7-3.1,2.7c-0.8,0-1.5-0.1-2.1-0.4l0.1-1.2c0.7,0.4,1.3,0.5,1.9,0.5c1.1,0,1.8-0.6,1.8-1.5c0-0.8-0.4-1.2-1.8-1.8
				c-1.7-0.8-2.2-1.4-2.2-2.5c0-1.5,1.2-2.5,2.9-2.5c0.7,0,1.3,0.1,1.9,0.3L618.3,422.8z"/>
			<path class="st3" d="M621.7,424h1.8v1h-1.8v2.9c0,1.1,0.1,1.8,1.1,1.8c0.3,0,0.5-0.1,0.7-0.2l0,1c-0.3,0.1-0.7,0.2-1.1,0.2
				c-1.7,0-2.1-1-2.1-2.4V425h-1.5v-1h1.5v-1.6l1.2-0.4V424z"/>
			<path class="st3" d="M624.9,424.4c0.6-0.4,1.4-0.6,2.2-0.6c1.9,0,2.7,1.1,2.7,2.6c0,0.8,0,1.9,0,2.2c0,0.7,0,1.5,0.1,2h-1.1
				c0-0.1,0-0.4,0-0.5c0-0.2,0-0.4,0-0.6h0c-0.5,0.8-1.2,1.2-2.2,1.2c-1.4,0-2.3-0.8-2.3-2c0-1.4,1.2-2.2,3.5-2.2c0.3,0,0.6,0,0.9,0
				v-0.1c0-1.1-0.6-1.7-1.7-1.7c-0.7,0-1.4,0.3-1.9,0.6L624.9,424.4z M627.9,427.4c-1.6,0-2.4,0.4-2.4,1.3c0,0.7,0.5,1,1.3,1
				c0.7,0,1.4-0.4,1.7-1c0.1-0.3,0.2-0.7,0.2-1.3C628.4,427.4,628.2,427.4,627.9,427.4z"/>
			<path class="st3" d="M633.1,424h1.8v1h-1.8v2.9c0,1.1,0.1,1.8,1.1,1.8c0.3,0,0.5-0.1,0.7-0.2l0,1c-0.3,0.1-0.7,0.2-1.1,0.2
				c-1.7,0-2.1-1-2.1-2.4V425h-1.5v-1h1.5v-1.6l1.2-0.4V424z"/>
			<path class="st3" d="M637.2,422.8h-1.4v-1.4h1.4V422.8z M637.2,430.6h-1.2V424h1.2V430.6z"/>
			<path class="st3" d="M643.2,425.2c-0.4-0.2-0.8-0.3-1.2-0.3c-1.3,0-2.2,0.9-2.2,2.3c0,1.4,0.9,2.4,2.2,2.4c0.5,0,0.9-0.1,1.4-0.3
				l0.1,1.1c-0.5,0.2-1,0.3-1.6,0.3c-2,0-3.4-1.4-3.4-3.4c0-2,1.4-3.4,3.5-3.4c0.5,0,1,0.1,1.4,0.2L643.2,425.2z"/>
			<path class="st3" d="M647.2,430.6v-9.1h4.8v1.1h-3.5v2.9h3.4v1.1h-3.4v4H647.2z"/>
			<path class="st3" d="M654.5,422.8h-1.4v-1.4h1.4V422.8z M654.5,430.6h-1.2V424h1.2V430.6z"/>
			<path class="st3" d="M657.4,430.6h-1.2v-9.8h1.2V430.6z"/>
			<path class="st3" d="M659.9,427.6c0.1,1.3,1,2.1,2.3,2.1c0.8,0,1.3-0.2,1.9-0.5l0,1.1c-0.6,0.3-1.3,0.4-2.1,0.4
				c-2.2,0-3.5-1.3-3.5-3.5c0-2.1,1.3-3.4,3.2-3.4c1.7,0,2.8,1.1,2.8,3.3c0,0.1,0,0.3,0,0.5H659.9z M663.5,426.6
				c0-1.3-0.7-1.9-1.7-1.9c-1,0-1.7,0.7-1.8,1.9H663.5z"/>
		</g>
	</g>
	<g>
		<path class="st4" d="M687.7,470.3h-170c-2.6,0-4.6-2.1-4.6-4.6v-15.9c0-2.6,2.1-4.6,4.6-4.6h170c2.6,0,4.6,2.1,4.6,4.6v15.9
			C692.4,468.2,690.3,470.3,687.7,470.3z"/>
		<g>
			<path class="st3" d="M555,454.7c-0.6-0.3-1.2-0.4-1.7-0.4c-1,0-1.6,0.5-1.6,1.2c0,0.6,0.3,1,1.7,1.7c1.6,0.7,2.2,1.5,2.2,2.7
				c0,1.6-1.2,2.7-3.1,2.7c-0.8,0-1.5-0.1-2.1-0.4l0.1-1.2c0.7,0.4,1.3,0.5,1.9,0.5c1.1,0,1.8-0.6,1.8-1.5c0-0.8-0.4-1.2-1.8-1.8
				c-1.7-0.8-2.2-1.4-2.2-2.5c0-1.5,1.2-2.5,2.9-2.5c0.7,0,1.3,0.1,1.9,0.3L555,454.7z"/>
			<path class="st3" d="M561.2,457.1c-0.4-0.2-0.8-0.3-1.2-0.3c-1.3,0-2.2,0.9-2.2,2.3c0,1.4,0.9,2.4,2.2,2.4c0.5,0,0.9-0.1,1.4-0.3
				l0.1,1.1c-0.5,0.2-1,0.3-1.6,0.3c-2,0-3.4-1.4-3.4-3.4c0-2,1.4-3.4,3.5-3.4c0.5,0,1,0.1,1.4,0.2L561.2,457.1z"/>
			<path class="st3" d="M562.7,456.2c0.6-0.4,1.4-0.6,2.2-0.6c1.9,0,2.7,1.1,2.7,2.6c0,0.8,0,1.9,0,2.2c0,0.7,0,1.5,0.1,2h-1.1
				c0-0.1,0-0.4,0-0.5c0-0.2,0-0.4,0-0.6h0c-0.5,0.8-1.2,1.2-2.2,1.2c-1.4,0-2.3-0.8-2.3-2c0-1.4,1.2-2.2,3.5-2.2c0.3,0,0.6,0,0.9,0
				v-0.1c0-1.1-0.6-1.7-1.7-1.7c-0.7,0-1.4,0.3-1.9,0.6L562.7,456.2z M565.8,459.2c-1.6,0-2.4,0.4-2.4,1.3c0,0.7,0.5,1,1.3,1
				c0.7,0,1.4-0.4,1.7-1c0.1-0.3,0.2-0.7,0.2-1.3C566.3,459.3,566.1,459.2,565.8,459.2z"/>
			<path class="st3" d="M570.5,462.4h-1.2v-9.8h1.2V462.4z"/>
			<path class="st3" d="M572.4,456.2c0.6-0.4,1.4-0.6,2.2-0.6c1.9,0,2.7,1.1,2.7,2.6c0,0.8,0,1.9,0,2.2c0,0.7,0,1.5,0.1,2h-1.1
				c0-0.1,0-0.4,0-0.5c0-0.2,0-0.4,0-0.6h0c-0.5,0.8-1.2,1.2-2.2,1.2c-1.4,0-2.3-0.8-2.3-2c0-1.4,1.2-2.2,3.5-2.2c0.3,0,0.6,0,0.9,0
				v-0.1c0-1.1-0.6-1.7-1.7-1.7c-0.7,0-1.4,0.3-1.9,0.6L572.4,456.2z M575.5,459.2c-1.6,0-2.4,0.4-2.4,1.3c0,0.7,0.5,1,1.3,1
				c0.7,0,1.4-0.4,1.7-1c0.1-0.3,0.2-0.7,0.2-1.3C576,459.3,575.7,459.2,575.5,459.2z"/>
			<path class="st3" d="M580,461.3c0,0.4,0,0.9-0.1,1.1h-1.1c0.1-0.6,0.1-1.3,0.1-2v-7.8h1.2v2.5c0,0.7,0,1.3,0,1.7h0
				c0.5-0.8,1.3-1.2,2.3-1.2c1.7,0,2.8,1.5,2.8,3.4c0,2-1.1,3.5-2.9,3.5C581.3,462.6,580.5,462.1,580,461.3L580,461.3z M580.2,459.1
				c0,1.3,0.8,2.4,1.9,2.4c1.1,0,1.9-1.1,1.9-2.4c0-1.4-0.7-2.5-1.8-2.5C581,456.7,580.2,457.8,580.2,459.1z"/>
			<path class="st3" d="M587.8,462.4h-1.2v-9.8h1.2V462.4z"/>
			<path class="st3" d="M590.3,459.4c0.1,1.3,1,2.1,2.3,2.1c0.8,0,1.3-0.2,1.9-0.5l0,1.1c-0.6,0.3-1.3,0.4-2.1,0.4
				c-2.2,0-3.5-1.3-3.5-3.5c0-2.1,1.3-3.4,3.2-3.4c1.7,0,2.8,1.1,2.8,3.3c0,0.1,0,0.3,0,0.5H590.3z M593.8,458.5
				c0-1.3-0.7-1.9-1.7-1.9c-1,0-1.7,0.7-1.8,1.9H593.8z"/>
			<path class="st3" d="M596.5,464.2h-1.1l0.8-3.2h1.4L596.5,464.2z"/>
			<path class="st3" d="M606.1,459.2c0.2,0.4,0.5,1.4,0.6,1.9h0c0.2-0.6,0.5-1.5,0.6-1.9l2.1-5.8h2.1v9.1h-1.3v-6c0-0.4,0-1.5,0-2.1
				h0c-0.2,0.6-0.5,1.4-0.6,1.8l-2.4,6.4H606l-2.4-6.2c-0.2-0.4-0.5-1.4-0.7-1.9h0c0,0.7,0,1.7,0,2.1v6h-1.2v-9.1h2.1L606.1,459.2z"
				/>
			<path class="st3" d="M618.1,461.4c-0.4,0.6-1,1.2-2.3,1.2c-1.5,0-2.4-1-2.4-2.7v-4.1h1.2v3.3c0,1.4,0.1,2.5,1.5,2.5
				c1.2,0,1.9-1.1,1.9-2.3v-3.4h1.2v4.6c0,0.7,0,1.4,0.1,2h-1.2C618.1,462.2,618.1,461.8,618.1,461.4L618.1,461.4z"/>
			<path class="st3" d="M622.2,462.4H621v-9.8h1.2V462.4z"/>
			<path class="st3" d="M625.8,455.8h1.8v1h-1.8v2.9c0,1.1,0.1,1.8,1.1,1.8c0.3,0,0.5-0.1,0.7-0.2l0,1c-0.3,0.1-0.7,0.2-1.1,0.2
				c-1.7,0-2.1-1-2.1-2.4v-3.2H623v-1h1.5v-1.6l1.2-0.4V455.8z"/>
			<path class="st3" d="M629.9,454.6h-1.4v-1.4h1.4V454.6z M629.8,462.4h-1.2v-6.6h1.2V462.4z"/>
			<path class="st3" d="M634.6,459.5h-3.4v-1h3.4V459.5z"/>
			<path class="st3" d="M639.9,454.7c-0.7-0.3-1.2-0.4-1.7-0.4c-1,0-1.6,0.5-1.6,1.2c0,0.6,0.3,1,1.7,1.7c1.6,0.7,2.2,1.5,2.2,2.7
				c0,1.6-1.2,2.7-3.1,2.7c-0.8,0-1.5-0.1-2.1-0.4l0.1-1.2c0.7,0.4,1.3,0.5,1.9,0.5c1.1,0,1.8-0.6,1.8-1.5c0-0.8-0.4-1.2-1.8-1.8
				c-1.7-0.8-2.2-1.4-2.2-2.5c0-1.5,1.2-2.5,2.9-2.5c0.7,0,1.3,0.1,1.9,0.3L639.9,454.7z"/>
			<path class="st3" d="M643,454.6h-1.4v-1.4h1.4V454.6z M643,462.4h-1.2v-6.6h1.2V462.4z"/>
			<path class="st3" d="M646.5,455.8h1.8v1h-1.8v2.9c0,1.1,0.1,1.8,1.1,1.8c0.3,0,0.5-0.1,0.7-0.2l0,1c-0.3,0.1-0.7,0.2-1.1,0.2
				c-1.7,0-2.1-1-2.1-2.4v-3.2h-1.5v-1h1.5v-1.6l1.2-0.4V455.8z"/>
			<path class="st3" d="M650,459.4c0.1,1.3,1,2.1,2.3,2.1c0.8,0,1.3-0.2,1.9-0.5l0,1.1c-0.6,0.3-1.3,0.4-2.1,0.4
				c-2.2,0-3.5-1.3-3.5-3.5c0-2.1,1.3-3.4,3.2-3.4c1.7,0,2.8,1.1,2.8,3.3c0,0.1,0,0.3,0,0.5H650z M653.6,458.5
				c0-1.3-0.7-1.9-1.7-1.9c-1,0-1.7,0.7-1.8,1.9H653.6z"/>
		</g>
	</g>
</g>
<g>
	<path class="st9" d="M94.7,40.6h3v44.3h-3.9L76.3,56.2c-2-3.3-5.8-9.7-7.3-12.7h-0.1c0.2,2.7,0.3,8.6,0.3,12.4v28.9h-3V40.6h4.1
		l17.2,28c1.9,3.1,6.1,10.3,7.4,13.1H95c-0.2-3.1-0.4-10.7-0.4-14.5V40.6z"/>
	<path class="st9" d="M107.3,69.1c0,8.4,4.7,13.9,12.7,13.9c2.9,0,5.5-0.6,8.3-2.2l0.2,2.9c-2.6,1.3-5.5,1.9-8.4,1.9
		c-10.2,0-15.7-6.4-15.7-16.8c0-9.8,5.9-16.6,14.3-16.6c7.7,0,12.3,5.3,12.3,15c0,0.4-0.1,1.3-0.1,2H107.3z M127.9,66.6
		c0-7.9-3.4-12.1-9.5-12.1s-10.5,4.2-11.1,12.1H127.9z"/>
	<path class="st9" d="M141.5,44.7v8.2h8.3v2.5h-8.3v20.4c0,5.1,2.1,7,5.5,7c1.1,0,2.1-0.1,3.3-0.7l0.1,2.5c-1.2,0.4-2.3,0.6-3.5,0.6
		c-6.2,0-8.2-3.5-8.2-9.5V55.4h-6.6v-2.5h6.6v-7.3L141.5,44.7z"/>
	<path class="st9" d="M163.2,84.9l-10.8-32.2h3.2l7.3,22.8c0.7,2.1,1.5,5.1,2.1,7.2h0.1c0.6-2.1,1.5-5.2,2.1-7.2l7.5-22.8h3.6
		l7.5,22.8c0.6,2,1.6,5.1,2.2,7.2h0.1c0.6-2.1,1.5-5.2,2.2-7.2l7.4-22.8h3l-10.9,32.2h-3.6L178,60c-0.4-1.4-1.1-3.4-1.5-4.9h-0.1
		c-0.4,1.5-1,3.4-1.4,4.9l-8.1,24.9H163.2z"/>
	<path class="st9" d="M231,68.9c0,10-6,16.6-14.7,16.6s-14.7-6.7-14.7-16.7s6.1-16.8,15-16.8C225.1,52.1,231,58.8,231,68.9z
		 M204.7,69c0,8.5,4.6,14,11.6,14c7,0,11.7-5.6,11.7-14.3s-4.6-14.2-11.7-14.2C209.3,54.6,204.7,60.2,204.7,69z"/>
	<path class="st9" d="M236.8,62.5c0-3.4-0.1-7-0.3-9.8h2.8c0.1,1.7,0.3,5.1,0.3,6.8h0.1c1.1-4.2,4.9-7.4,9-7.4
		c0.8,0,1.5,0.1,2.4,0.3l-0.1,2.6c-0.8-0.2-1.5-0.3-2.3-0.3c-5.2,0-8.9,5.6-8.9,12.1v18.1h-2.9V62.5z"/>
	<path class="st9" d="M261.5,71.7c-1.5-1.5-2.8-2.9-3.7-4.1h-0.1v17.3h-2.9v-48h2.9v29.3h0.1c0.8-0.9,2-2,3.7-3.4l11.9-10h4.3
		l-17.4,14.1l18.6,18.1h-4.1L261.5,71.7z"/>
	<path class="st9" d="M316.3,44.5c-2.4-1.1-5.4-1.8-8.5-1.8c-5.6,0-10.1,3-10.1,8.3c0,4.5,3,6.7,10.2,10.3
		c7.4,3.7,10.7,6.9,10.7,12.3c0,7.3-5.8,11.9-14,11.9c-3.6,0-7.3-0.7-10.1-1.8l0.3-3.3c3.3,1.6,6.4,2.3,9.8,2.3
		c6.5,0,10.7-3.6,10.7-8.9c0-4.2-2.2-6.8-9.8-10.5c-7.1-3.4-11-6.3-11-12.4c0-6.3,5.2-11,13.3-11c3.2,0,6.3,0.6,8.8,1.5L316.3,44.5z
		"/>
	<path class="st9" d="M327.8,44.7v8.2h8.3v2.5h-8.3v20.4c0,5.1,2.1,7,5.5,7c1.1,0,2.1-0.1,3.3-0.7l0.1,2.5c-1.2,0.4-2.3,0.6-3.5,0.6
		c-6.2,0-8.2-3.5-8.2-9.5V55.4h-6.6v-2.5h6.6v-7.3L327.8,44.7z"/>
	<path class="st9" d="M367,68.9c0,10-6,16.6-14.7,16.6s-14.7-6.7-14.7-16.7s6.1-16.8,15-16.8C361,52.1,367,58.8,367,68.9z M340.7,69
		c0,8.5,4.6,14,11.6,14c7,0,11.7-5.6,11.7-14.3s-4.6-14.2-11.7-14.2C345.2,54.6,340.7,60.2,340.7,69z"/>
	<path class="st9" d="M372.7,62.5c0-3.4-0.1-7-0.3-9.8h2.8c0.1,1.7,0.3,5.1,0.3,6.8h0.1c1.1-4.2,4.9-7.4,9-7.4
		c0.8,0,1.5,0.1,2.4,0.3l-0.1,2.6c-0.8-0.2-1.5-0.3-2.3-0.3c-5.2,0-8.9,5.6-8.9,12.1v18.1h-2.9V62.5z"/>
	<path class="st9" d="M409.3,78.8c-1.4,3.6-5.7,6.6-10.9,6.6c-6.3,0-10.7-3.7-10.7-9.2c0-6.9,6.2-10.3,17.3-10.3
		c1.4,0,3.2,0.1,4.4,0.2v-1.4c0-5.5-2-10.1-8.8-10.1c-2.9,0-6.3,0.9-9.5,3.1l-0.2-2.9c3-1.8,6.9-2.7,10-2.7c8,0,11.2,4.8,11.2,12.4
		c0,4.1-0.3,8.9-0.3,11.1c0,3.6,0.2,7,0.4,9.3h-2.8c-0.1-0.5-0.1-1.7-0.1-2.7c0-0.8,0.1-2.6,0.1-3.5H409.3z M405.3,68.1
		c-9.1,0-14.5,2.4-14.5,8.1c0,4.1,3.3,6.8,7.9,6.8c4.1,0,8-2.2,9.6-6c0.8-1.9,1-5.1,1-8.6C408.2,68.2,406.9,68.1,405.3,68.1z"/>
	<path class="st9" d="M445,52.7V83c0,11.1-6.2,16-14.8,16c-3.8,0-7.6-0.8-10.4-2.1l0.3-3c2.9,1.6,6.7,2.5,10,2.5
		c9.6,0,12.1-6.3,12.1-14.3c0-1.3,0-2.9,0.1-4.5h-0.1c-1.9,4.2-5.9,7.3-11.4,7.3c-8.4,0-13.4-6.7-13.4-16.1
		c0-9.7,5.3-16.8,13.6-16.8c6,0,9.3,3.5,11.2,7h0.1c-0.1-2-0.1-4.7-0.1-6.3H445z M420.4,68.9c0,8.2,4,13.5,10.5,13.5
		c6.4,0,11.2-5.4,11.2-13.5s-4.1-14.3-11-14.3C424.4,54.6,420.4,60.5,420.4,68.9z"/>
	<path class="st9" d="M453.8,69.1c0,8.4,4.7,13.9,12.7,13.9c2.9,0,5.5-0.6,8.3-2.2l0.2,2.9c-2.6,1.3-5.5,1.9-8.4,1.9
		c-10.2,0-15.7-6.4-15.7-16.8c0-9.8,5.9-16.6,14.3-16.6c7.7,0,12.3,5.3,12.3,15c0,0.4-0.1,1.3-0.1,2H453.8z M474.5,66.6
		c0-7.9-3.4-12.1-9.5-12.1c-6.1,0-10.5,4.2-11.1,12.1H474.5z"/>
	<path class="st9" d="M533.7,63.2c0,13.5-7.7,22.4-19,22.4c-12,0-19.7-8.8-19.7-22.3c0-14.2,7.7-23.2,19.7-23.2
		C526.3,40,533.7,49.4,533.7,63.2z M498.3,62.8c0,12.2,6.5,20,16.4,20c9.5,0,15.7-7.7,15.7-19.9c0-12.6-6.1-20.2-16.2-20.2
		C504.7,42.8,498.3,50.6,498.3,62.8z"/>
	<path class="st9" d="M543,77.9c0.1,1.4,0.1,5.1,0.1,8.2v12.1h-2.9V62.5c0-3.4-0.1-7-0.3-9.8h2.9c0.1,1.4,0.3,5.3,0.3,6.8h0.1
		c2.4-5,6.7-7.4,11.5-7.4c7.9,0,13.1,6.7,13.1,16.6c0,10.1-5.3,16.8-13.4,16.8c-5,0-9.3-2.8-11.4-7.6H543z M543,69.1
		c0,8.2,4.7,14,11.2,14c6.4,0,10.7-5.6,10.7-14c0-8.9-4.1-14.5-10.7-14.5C547.4,54.6,543,60.4,543,69.1z"/>
	<path class="st9" d="M578.1,44.7v8.2h8.3v2.5h-8.3v20.4c0,5.1,2.1,7,5.5,7c1.1,0,2.1-0.1,3.3-0.7l0.1,2.5c-1.2,0.4-2.3,0.6-3.5,0.6
		c-6.2,0-8.2-3.5-8.2-9.5V55.4h-6.6v-2.5h6.6v-7.3L578.1,44.7z"/>
	<path class="st9" d="M594.6,40.6v4.3H591v-4.3H594.6z M594.2,84.9h-2.9V52.7h2.9V84.9z"/>
	<path class="st9" d="M629.2,68.9c0,10-6,16.6-14.7,16.6c-8.7,0-14.7-6.7-14.7-16.7s6.1-16.8,15-16.8
		C623.3,52.1,629.2,58.8,629.2,68.9z M602.9,69c0,8.5,4.6,14,11.6,14c7,0,11.7-5.6,11.7-14.3s-4.6-14.2-11.7-14.2
		C607.5,54.6,602.9,60.2,602.9,69z"/>
	<path class="st9" d="M635,62.5c0-3.4-0.1-7-0.3-9.8h2.9c0.1,1.7,0.3,4.8,0.3,6.5h0.1c2.2-4.5,6-7.2,11.3-7.2
		c8.4,0,10.7,6,10.7,14.2v18.6h-2.9V67.1c0-8.8-2.3-12.5-8.4-12.5c-3.7,0-6.9,2-8.9,5.1c-1.6,2.3-2,4.1-2,8.5v16.8H635V62.5z"/>
	<path class="st9" d="M665,81c2.9,1.4,5.3,2,8.3,2c3.9,0,7.8-1.8,7.8-6.4c0-3.7-2-5.2-7.7-7.3c-4.3-1.6-8.2-3.4-8.2-8.6
		c0-5.5,4.6-8.6,10.1-8.6c2.5,0,5.1,0.4,7.3,1.2l-0.3,2.8c-2.4-1.1-4.6-1.5-7-1.5c-3.9,0-7.2,2.1-7.2,6c0,3.2,2.4,4.8,7.6,6.6
		c5.6,1.9,8.4,4.5,8.4,9c0,6.5-5.5,9.3-10.7,9.3c-3.2,0-5.9-0.6-8.8-1.6L665,81z"/>
</g>
</svg>
